<?xml version="1.0" encoding="UTF-8"?>
<svg width="120px" height="120px" viewBox="0 0 120 120" version="1.1" xmlns="http://www.w3.org/2000/svg" xmlns:xlink="http://www.w3.org/1999/xlink">
    <title>icn_integrity</title>
    <defs>
        <linearGradient x1="0%" y1="49.9643058%" x2="100%" y2="49.9643058%" id="linearGradient-1">
            <stop stop-color="#37843B" offset="0%"></stop>
            <stop stop-color="#289B2B" offset="20%"></stop>
            <stop stop-color="#12BB13" offset="53%"></stop>
            <stop stop-color="#05CF05" offset="81%"></stop>
            <stop stop-color="#00D600" offset="100%"></stop>
        </linearGradient>
        <linearGradient x1="0.0371220542%" y1="50.0178236%" x2="99.9325699%" y2="50.0178236%" id="linearGradient-2">
            <stop stop-color="#37843B" offset="0%"></stop>
            <stop stop-color="#289B2B" offset="20%"></stop>
            <stop stop-color="#12BB13" offset="53%"></stop>
            <stop stop-color="#05CF05" offset="81%"></stop>
            <stop stop-color="#00D600" offset="100%"></stop>
        </linearGradient>
        <linearGradient x1="0.00756649526%" y1="49.9951946%" x2="100%" y2="49.9951946%" id="linearGradient-3">
            <stop stop-color="#37843B" offset="0%"></stop>
            <stop stop-color="#289B2B" offset="20%"></stop>
            <stop stop-color="#12BB13" offset="53%"></stop>
            <stop stop-color="#05CF05" offset="81%"></stop>
            <stop stop-color="#00D600" offset="100%"></stop>
        </linearGradient>
        <linearGradient x1="-0.43382837%" y1="49.9916487%" x2="99.4551539%" y2="49.9916487%" id="linearGradient-4">
            <stop stop-color="#37843B" offset="0%"></stop>
            <stop stop-color="#289B2B" offset="20%"></stop>
            <stop stop-color="#12BB13" offset="53%"></stop>
            <stop stop-color="#05CF05" offset="81%"></stop>
            <stop stop-color="#00D600" offset="100%"></stop>
        </linearGradient>
        <linearGradient x1="0.167392086%" y1="49.9938921%" x2="100.255319%" y2="49.9938921%" id="linearGradient-5">
            <stop stop-color="#37843B" offset="0%"></stop>
            <stop stop-color="#289B2B" offset="20%"></stop>
            <stop stop-color="#12BB13" offset="53%"></stop>
            <stop stop-color="#05CF05" offset="81%"></stop>
            <stop stop-color="#00D600" offset="100%"></stop>
        </linearGradient>
        <linearGradient x1="-0.0165616485%" y1="49.9716352%" x2="99.9571567%" y2="49.9716352%" id="linearGradient-6">
            <stop stop-color="#37843B" offset="0%"></stop>
            <stop stop-color="#289B2B" offset="20%"></stop>
            <stop stop-color="#12BB13" offset="53%"></stop>
            <stop stop-color="#05CF05" offset="81%"></stop>
            <stop stop-color="#00D600" offset="100%"></stop>
        </linearGradient>
        <linearGradient x1="0%" y1="50.0669738%" x2="100%" y2="50.0669738%" id="linearGradient-7">
            <stop stop-color="#37843B" offset="0%"></stop>
            <stop stop-color="#289B2B" offset="20%"></stop>
            <stop stop-color="#12BB13" offset="53%"></stop>
            <stop stop-color="#05CF05" offset="81%"></stop>
            <stop stop-color="#00D600" offset="100%"></stop>
        </linearGradient>
    </defs>
    <g id="UI-Design" stroke="none" stroke-width="1" fill="none" fill-rule="evenodd">
        <g id="Aifin-Web-V5" transform="translate(-190.000000, -1636.000000)" fill-rule="nonzero">
            <g id="Group-21" transform="translate(180.000000, 1626.000000)">
                <g id="icn_integrity" transform="translate(10.000000, 10.000000)">
                    <path d="M55.8,89.868 C50.832,92.736 42.78,92.736 37.8,89.868 C32.82,87 32.832,82.35 37.8,79.482 C42.768,76.614 50.82,76.614 55.8,79.482 C60.78,82.35 60.774,87 55.8,89.868 Z" id="Path" fill="#B9BEC7" opacity="0.38" style="mix-blend-mode: multiply;"></path>
                    <path d="M53.814,32.796 C53.8220216,33.3487683 53.8843207,33.899412 54,34.44 C54.7570594,35.9541803 55.1475632,37.6251256 55.14,39.318 C55.1406083,42.2752472 55.5835075,45.2157738 56.454,48.042 C57.0709704,48.7780428 57.3804282,49.7236085 57.318,50.682 C57.18,51.558 55.812,52.308 54.918,52.794 C54.024,53.28 52.842,51.828 53.514,50.994 C54.186,50.16 50.4,37.644 50.4,37.644 L51.042,31.614 L53.352,31.41 L53.814,32.796 Z" id="Path" fill="#EEC4B2"></path>
                    <path d="M50.538,22.068 C50.538,22.068 53.88,23.052 53.958,27.15 C54.012,29.712 54.174,32.55 54.174,32.55 C53.0633659,33.474042 51.4978359,33.6172307 50.238,32.91 C50.238,31.866 49.458,26.388 49.458,26.388 L48.438,23.142 L49.404,21.804 L50.538,22.068 Z" id="Path" fill="url(#linearGradient-1)"></path>
                    <path d="M42.714,21.456 C42.7482579,22.4954499 42.4657737,23.5207629 41.904,24.396 L41.718,26.466 L44.61,29.604 L48.21,29.964 L50.82,27.432 L50.646,24.942 L47.97,21.456 C47.97,21.456 43.506,20.67 42.714,21.456 Z" id="Path" fill="#C4A294"></path>
                    <path d="M52.59,80.04 C53.586,81.114 55.962,82.17 56.952,82.686 C57.942,83.202 57.954,84.972 56.952,85.242 C55.308,85.674 50.598,83.442 50.598,83.442 C50.598,83.442 47.844,83.442 47.04,82.536 C46.53,81.936 47.118,79.536 47.118,79.536 L48.918,79.194 C48.918,79.194 52.374,79.668 52.59,80.04 Z" id="Path" fill="#121214"></path>
                    <path d="M53.352,43.146 C55.032,52.71 52.944,59.784 52.62,66.216 C52.296,72.648 52.776,78.216 52.62,79.56 C52.446,81.108 46.62,81.432 46.554,79.338 C46.1682279,74.7275669 46.402313,70.0862239 47.25,65.538 C47.358,63.24 46.458,57.318 46.458,57.318 L45.774,52.2 L47.262,48.246 C47.262,48.246 52.74,42.048 53.352,43.146 Z" id="Path" fill="#1A2E35"></path>
                    <path d="M42.354,82.746 C42.48987,83.7712338 42.7896963,84.7679536 43.242,85.698 C43.6984527,86.4845281 43.7476002,87.4429051 43.374,88.272 C43.092,88.872 38.076,90.462 38.076,85.914 L38.076,81.768 C38.076,81.768 42.294,81.726 42.354,82.746 Z" id="Path" fill="#121214"></path>
                    <path d="M40.668,44.796 C38.142,48.396 39.546,63.264 38.82,66.096 C37.296,72.024 37.02,81.696 37.536,82.53 C38.502,85.224 43.122,84.018 43.08,82.128 C43.32,68.148 47.424,53.508 47.424,53.508 C47.424,53.508 52.65,50.58 53.352,43.146 C52.656,42.384 41.352,43.908 40.668,44.796 Z" id="Path" fill="#1A2E35"></path>
                    <path d="M41.328,43.368 L40.668,44.796 C40.668,44.796 43.668,50.982 53.352,43.146 C53.352,42.744 53.298,41.904 53.298,41.904 L41.328,43.368 Z" id="Path" fill="#121214"></path>
                    <path d="M48.708,22.65 C49.068,24.54 49.242,27.564 48.336,28.302 C46.056,28.962 45.09,25.782 41.736,24.312 C40.512,25.8 37.2,28.302 37.2,28.302 C37.6996651,31.5131917 38.592366,34.6507429 39.858,37.644 C40.896,39.93 41.448,42.75 41.322,43.368 C43.998,49.368 53.322,41.904 53.322,41.904 C53.322,41.904 53.58,30.426 52.8,27.03 C51.972,23.454 48.168,22.146 48.708,22.65 Z" id="Path" fill="url(#linearGradient-2)"></path>
                    <path d="M41.718,41.058 C41.718,41.058 42.6,42.258 44.652,40.656 C46.614,39.114 45.414,37.602 45.414,37.602 L44.61,36.876 L41.448,37.56 L41.034,38.646 L41.718,41.058 Z" id="Path" fill="#FD4D75"></path>
                    <polygon id="Path" fill="#C4A294" points="62.748 52.206 59.964 52.74 58.488 51.666 58.194 49.602 60.096 49.446 62.16 50.25 62.64 51.21"></polygon>
                    <path d="M45.12,37.692 C46.0408821,39.0372026 46.7717727,40.5030218 47.292,42.048 C50.892,43.602 54.924,47.328 57.312,48.048 C57.636,48.144 59.184,47.97 59.88,48.72 C60.0273271,49.2097453 60.0662285,49.7257009 59.994,50.232 L60.954,51.114 C60.954,51.114 62.478,51.93 62.496,52.212 C62.532,53.004 59.442,53.856 58.566,53.412 C57.066,52.632 55.458,50.064 55.458,50.064 C53.826,49.044 46.518,47.424 44.514,44.874 C43.914,44.208 41.448,39.936 41.448,39.936 L41.688,37.722 L43.914,37.338 C44.3504706,37.2275414 44.812479,37.3631558 45.12,37.692 L45.12,37.692 Z" id="Path" fill="#EEC4B2"></path>
                    <path d="M37.614,28.062 C33.84,29.94 37.578,35.352 37.578,35.352 L41.718,41.058 C41.718,41.058 41.958,38.658 45.414,37.602 L42.12,32.256 C42.12,32.256 40.536,26.61 37.614,28.062 Z" id="Path" fill="url(#linearGradient-3)"></path>
                    <path d="M48.876,14.904 C51.12,16.362 50.556,19.17 50.556,19.17 C50.556,19.17 50.778,23.214 50.022,24.792 C49.8424418,25.2573782 49.371748,25.5432446 48.876,25.488 C45.138,25.404 43.512,21.954 43.512,21.954 C42.9410737,21.8455617 42.5036089,21.3839276 42.426,20.808 C42.216,20.436 41.718,19.326 41.718,19.326 L42.384,16.2 L44.022,14.088 L46.422,14.088 C47.2630327,14.2850903 48.0844114,14.5582138 48.876,14.904 Z" id="Path" fill="#EEC4B2"></path>
                    <path d="M48.6,16.338 C47.13,16.986 44.766,15.258 44.256,15.876 C43.392,16.92 44.496,17.004 44.856,18.108 C45.336,19.494 44.748,20.778 44.556,20.802 C43.71,20.904 43.596,19.002 42.432,19.278 C41.946,19.392 42.432,20.808 42.432,20.808 C41.8765131,20.2703908 41.5048627,19.5711842 41.37,18.81 C41.238,17.01 41.268,13.578 44.97,13.044 C49.08,12.45 49.434,15.96 48.6,16.338 Z" id="Path" fill="#131313"></path>
                    <path d="M80.844,104.874 C75.876,107.742 67.83,107.742 62.844,104.874 C57.858,102.006 57.876,97.356 62.844,94.488 C67.812,91.62 75.858,91.62 80.844,94.488 C85.83,97.356 85.8,102 80.844,104.874 Z" id="Path" fill="#B9BEC7" opacity="0.38" style="mix-blend-mode: multiply;"></path>
                    <path d="M73.392,38.724 C73.6648724,39.5942347 73.7667455,40.5090551 73.692,41.418 L73.836,42.456 L78.798,41.4 L79.896,39.954 L79.896,39.444 L79.524,38.076 L76.8,36.528 L72.996,37.386 C73.1014957,37.8394198 73.2337268,38.2862005 73.392,38.724 Z" id="Path" fill="#EEC4B2"></path>
                    <path d="M59.88,48.696 C59.88,48.696 57.3,49.86 57.78,50.766 C58.26,51.672 59.994,50.208 59.994,50.208 L59.88,48.696 Z" id="Path" fill="#C4A294"></path>
                    <path d="M68.322,47.502 C68.322,47.502 64.086,48.948 62.922,48.996 C62.532,48.996 60.618,48.492 59.922,48.696 C59.226,48.9 57.738,50.262 58.008,50.682 C58.278,51.102 59.886,50.25 60.036,50.208 C60.5063292,50.6883522 61.1659512,50.9346111 61.836,50.88 C61.836,50.88 61.956,52.014 62.562,52.188 C63.168,52.362 63.546,51.588 64.008,51.468 C64.932,51.198 67.986,51.468 67.986,51.468 L69,48.6 L68.322,47.502 Z" id="Path" fill="#EEC4B2"></path>
                    <path d="M80.4,39.972 C80.4,39.972 83.91,38.406 85.44,40.47 C86.97,42.534 84.444,45.51 84.444,45.51 L80.4,39.972 Z" id="Path" fill="url(#linearGradient-4)"></path>
                    <path d="M78,94.974 C78,94.974 76.248,94.788 76.464,96.174 C76.632,97.242 78.54,99.264 78.54,99.264 C78.54,99.264 79.098,101.352 80.124,101.754 C80.8052517,102.119973 81.6510243,101.942715 82.128,101.334 C82.392,100.92 82.056,97.89 82.056,97.356 C82.056,96.822 78,94.974 78,94.974 Z" id="Path" fill="#000000"></path>
                    <path d="M75.288,70.8 C75.288,70.8 76.116,77.952 77.364,82.494 C78.288,85.86 77.712,93.294 77.652,95.592 C77.592,97.89 82.632,98.934 82.944,96.258 C83.256,93.582 84.492,85.71 82.944,82.008 C82.71,80.562 82.944,65.454 82.944,65.454 L73.8,64.332 L73.704,69.798 L75.288,70.8 Z" id="Path" fill="#121214"></path>
                    <path d="M67.386,98.322 C66.078,98.988 62.586,99.156 61.806,99.594 C61.026,100.032 61.08,101.742 62.928,102.264 C64.776,102.786 71.958,103.26 72.744,102.654 C73.53,102.048 73.008,98.82 73.008,98.82 C73.008,98.82 68.088,97.86 67.386,98.322 Z" id="Path" fill="#000000"></path>
                    <path d="M68.322,63.282 C67.2463504,69.7286009 66.882166,76.2738613 67.236,82.8 C67.368,91.8 67.236,96.294 67.002,97.5 C66.576,100.152 73.65,100.38 73.836,98.064 C74.022,95.748 74.328,91.926 73.446,84.204 C73.53,81.15 76.116,71.256 76.116,71.256 C76.116,71.256 81.756,68.856 82.83,66.078 C83.466,64.41 81.27,58.116 81.27,58.116 L79.524,58.116 L73.008,60.708 L69.636,60.708 C69.636,60.708 68.922,62.04 68.322,63.282 Z" id="Path" fill="#303033"></path>
                    <path d="M80.724,56.592 C80.9483332,57.0920779 81.1309547,57.60984 81.27,58.14 C72.108,64.332 68.538,61.476 68.538,61.476 L69.234,59.262 L80.724,56.592 Z" id="Path" fill="#121214"></path>
                    <path d="M72.366,43.272 C71.0085764,44.1214225 69.8304488,45.2282102 68.898,46.53 C68.898,46.53 68.238,58.53 68.298,59.52 C71.352,62.976 80.406,57.12 80.538,56.868 C82.008,55.848 81.012,55.008 81.6,53.694 C83.364,49.722 85.842,45.072 84.6,42.636 C83.8809054,41.2161551 82.4677936,40.2793988 80.88,40.17 L75.786,41.37 C75.786,41.37 73.416,42.684 72.366,43.272 Z" id="Path" fill="url(#linearGradient-5)"></path>
                    <path d="M73.392,50.682 L71.766,58.932 C71.448,59.532 69.534,59.49 69.534,59.49 L69.534,55.968 L73.392,50.682 Z" id="Path" fill="#E6E6E6" style="mix-blend-mode: multiply;"></path>
                    <path d="M66.528,57.294 C66.4671207,57.8042833 66.301676,58.2965323 66.042,58.74 C64.464,61.476 64.464,66.432 63.096,68.226 C62.418,69.114 60.33,70.26 60.336,71.574 C60.2738057,72.5178252 60.9527228,73.3487778 61.89,73.476 C62.556,73.632 63.894,73.968 64.332,73.476 C64.77,72.984 64.002,72.468 64.002,72.468 C64.002,72.468 65.262,70.914 65.454,70.068 C65.5393046,69.5716384 65.5393046,69.0643616 65.454,68.568 C65.49,68.076 69.684,63.516 70.17,60.24 C70.26,59.64 70.386,58.578 70.386,58.578 L66.528,57.294 Z" id="Path" fill="#EEC4B2"></path>
                    <path d="M71.754,45.12 C68.754,44.322 67.344,50.13 67.344,50.13 C67.344,50.13 66.492,53.868 65.922,56.958 C65.46,59.094 70.722,59.676 71.082,58.626 C71.442,57.576 73.362,50.826 73.362,50.826 C73.362,50.826 74.784,45.918 71.754,45.12 Z" id="Path" fill="url(#linearGradient-6)"></path>
                    <path d="M72.366,43.272 L80.934,40.2 C80.934,40.2 80.334,42.492 77.376,43.302 C75.7407884,43.7947056 73.9951939,43.784253 72.366,43.272 L72.366,43.272 Z" id="Path" fill="#E6E6E6" style="mix-blend-mode: multiply;"></path>
                    <path d="M72.366,43.116 L72.9,41.112 C75.5813957,41.7451941 78.3971776,40.9041164 80.292,38.904 C80.4778135,39.2896014 80.6924212,39.660652 80.934,40.014 C78.366,44.034 72.366,43.116 72.366,43.116 Z" id="Path" fill="url(#linearGradient-7)"></path>
                    <path d="M71.064,30.852 C70.116,33.312 71.202,38.052 71.808,38.484 C73.092,39.342 74.646,38.136 74.646,38.136 L74.406,32.484 C74.406,32.484 71.448,30.342 71.064,30.852 Z" id="Path" fill="#EEC4B2"></path>
                    <path d="M72.9,28.302 C72.9,28.302 71.502,27.978 71.16,29.04 C70.956,29.682 71.16,30.732 71.1,31.374 C70.752,36.774 75.102,40.254 75.528,40.44 C75.954,40.626 79.728,40.95 80.028,38.244 C80.202,36.81 81.414,35.022 80.724,32.322 C79.872,28.944 76.062,27.042 74.646,27.18 C73.8936982,27.1770778 73.2099072,27.6164899 72.9,28.302 Z" id="Path" fill="#303030"></path>
                    <path d="M77.298,30.498 C75.744,29.214 72.9,28.302 72.9,28.302 C72.9,28.302 76.332,28.44 77.298,30.498 Z" id="Path" fill="#000000"></path>
                </g>
            </g>
        </g>
    </g>
</svg>