<?xml version="1.0" encoding="UTF-8"?>
<svg width="120px" height="120px" viewBox="0 0 120 120" version="1.1" xmlns="http://www.w3.org/2000/svg" xmlns:xlink="http://www.w3.org/1999/xlink">
    <title>icn_together</title>
    <defs>
        <linearGradient x1="0.0149665277%" y1="49.9455046%" x2="100.006338%" y2="49.9455046%" id="linearGradient-1">
            <stop stop-color="#37843B" offset="0%"></stop>
            <stop stop-color="#289B2B" offset="20%"></stop>
            <stop stop-color="#12BB13" offset="53%"></stop>
            <stop stop-color="#05CF05" offset="81%"></stop>
            <stop stop-color="#00D600" offset="100%"></stop>
        </linearGradient>
        <linearGradient x1="-0.00196822974%" y1="49.9275007%" x2="99.9931955%" y2="49.9275007%" id="linearGradient-2">
            <stop stop-color="#37843B" offset="0%"></stop>
            <stop stop-color="#289B2B" offset="20%"></stop>
            <stop stop-color="#12BB13" offset="53%"></stop>
            <stop stop-color="#05CF05" offset="81%"></stop>
            <stop stop-color="#00D600" offset="100%"></stop>
        </linearGradient>
        <linearGradient x1="0%" y1="49.9378631%" x2="99.973318%" y2="49.9378631%" id="linearGradient-3">
            <stop stop-color="#37843B" offset="0%"></stop>
            <stop stop-color="#289B2B" offset="20%"></stop>
            <stop stop-color="#12BB13" offset="53%"></stop>
            <stop stop-color="#05CF05" offset="81%"></stop>
            <stop stop-color="#00D600" offset="100%"></stop>
        </linearGradient>
        <linearGradient x1="0.0356650292%" y1="50.0039453%" x2="99.999979%" y2="50.0039453%" id="linearGradient-4">
            <stop stop-color="#37843B" offset="0%"></stop>
            <stop stop-color="#289B2B" offset="20%"></stop>
            <stop stop-color="#12BB13" offset="53%"></stop>
            <stop stop-color="#05CF05" offset="81%"></stop>
            <stop stop-color="#00D600" offset="100%"></stop>
        </linearGradient>
        <linearGradient x1="-0.00314686851%" y1="50.0045868%" x2="99.9971083%" y2="50.0045868%" id="linearGradient-5">
            <stop stop-color="#37843B" offset="0%"></stop>
            <stop stop-color="#289B2B" offset="20%"></stop>
            <stop stop-color="#12BB13" offset="53%"></stop>
            <stop stop-color="#05CF05" offset="81%"></stop>
            <stop stop-color="#00D600" offset="100%"></stop>
        </linearGradient>
        <linearGradient x1="62.2847342%" y1="67.9766006%" x2="29.1335975%" y2="31.4491665%" id="linearGradient-6">
            <stop stop-color="#D9A279" offset="0%"></stop>
            <stop stop-color="#EEB98D" offset="100%"></stop>
        </linearGradient>
        <linearGradient x1="0.0203369%" y1="50.0133811%" x2="99.9818379%" y2="50.0133811%" id="linearGradient-7">
            <stop stop-color="#37843B" offset="0%"></stop>
            <stop stop-color="#289B2B" offset="20%"></stop>
            <stop stop-color="#12BB13" offset="53%"></stop>
            <stop stop-color="#05CF05" offset="81%"></stop>
            <stop stop-color="#00D600" offset="100%"></stop>
        </linearGradient>
    </defs>
    <g id="UI-Design" stroke="none" stroke-width="1" fill="none" fill-rule="evenodd">
        <g id="Aifin-Web-V5" transform="translate(-557.000000, -1636.000000)" fill-rule="nonzero">
            <g id="Group-22" transform="translate(547.000000, 1626.000000)">
                <g id="icn_together" transform="translate(10.000000, 10.000000)">
                    <ellipse id="Oval" fill="#B9BEC7" opacity="0.38" style="mix-blend-mode: multiply;" cx="67.26" cy="40.086" rx="11.994" ry="7.554"></ellipse>
                    <ellipse id="Oval" fill="#B9BEC7" opacity="0.38" style="mix-blend-mode: multiply;" transform="translate(36.275044, 49.536524) rotate(-80.170000) translate(-36.275044, -49.536524) " cx="36.2750438" cy="49.5365236" rx="11.994" ry="7.554"></ellipse>
                    <ellipse id="Oval" fill="#B9BEC7" opacity="0.38" style="mix-blend-mode: multiply;" transform="translate(85.533543, 64.541742) rotate(-20.260000) translate(-85.533543, -64.541742) " cx="85.5335433" cy="64.5417423" rx="7.554" ry="11.994"></ellipse>
                    <ellipse id="Oval" fill="#B9BEC7" opacity="0.38" style="mix-blend-mode: multiply;" transform="translate(40.049532, 79.158635) rotate(-65.430000) translate(-40.049532, -79.158635) " cx="40.0495323" cy="79.1586347" rx="7.554" ry="11.994"></ellipse>
                    <ellipse id="Oval" fill="#B9BEC7" opacity="0.38" style="mix-blend-mode: multiply;" transform="translate(69.231101, 87.137708) rotate(-37.330000) translate(-69.231101, -87.137708) " cx="69.2311011" cy="87.1377076" rx="11.994" ry="7.554"></ellipse>
                    <path d="M73.944,83.226 C73.05,80.916 71.388,78.906 70.584,78.75 C69.78,78.594 68.934,79.014 68.892,79.752 C68.8968934,81.190444 69.224976,82.6094012 69.852,83.904 C70.668,85.554 73.944,83.226 73.944,83.226 Z" id="Path" fill="#CA4E37"></path>
                    <path d="M73.944,83.226 C73.7336606,82.6675467 73.4850713,82.1242587 73.2,81.6 C73.2,81.6 71.304,83.184 70.554,83.1 C69.804,83.016 69.036,81.204 69.186,79.152 C69.028554,79.3136397 68.9348004,79.5267162 68.922,79.752 C68.9259942,81.1924706 69.2540996,82.613577 69.882,83.91 C69.9485713,84.0321371 70.0358713,84.1417697 70.14,84.234 C70.596,84.234 71.43,84.114 72.54,84.036 C73.0296452,83.8053878 73.4992636,83.5344541 73.944,83.226 L73.944,83.226 Z" id="Path" fill="#B53E2C"></path>
                    <path d="M73.296,83.616 C72.768,82.248 71.784,81.054 71.31,80.958 C70.836,80.862 70.326,81.12 70.302,81.558 C70.3090076,82.4172052 70.5143426,83.2631855 70.902,84.03 C71.358,84.996 73.296,83.616 73.296,83.616 Z" id="Path" fill="#EEB98D"></path>
                    <path d="M72.504,82.122 C71.904,82.572 70.998,83.148 70.53,83.106 C70.6157602,83.4217912 70.7302375,83.7290724 70.872,84.024 C70.9083505,84.076752 70.9529149,84.123342 71.004,84.162 C71.424,84.126 71.934,84.078 72.534,84.036 C72.738,83.94 72.924,83.844 73.098,83.748 L73.296,83.616 C73.091598,83.0886204 72.8257652,82.587163 72.504,82.122 Z" id="Path" fill="#E6A979"></path>
                    <path d="M37.89,47.952 C39.99,48.45 42.216,48.144 42.69,47.556 C43.164,46.968 43.242,46.026 42.69,45.594 C41.6643763,44.8290788 40.4641455,44.332076 39.198,44.148 C37.656,43.944 37.89,47.952 37.89,47.952 Z" id="Path" fill="#624F45"></path>
                    <path d="M37.89,47.952 C38.3947645,48.0706039 38.9085481,48.1468687 39.426,48.18 C39.426,48.18 39.126,45.732 39.522,45.144 C39.918,44.556 41.604,44.898 43.044,46.134 C42.9965357,45.9253894 42.8854108,45.7366866 42.726,45.594 C41.7003763,44.8290788 40.5001455,44.332076 39.234,44.148 C39.114339,44.1338131 38.9930193,44.148207 38.88,44.19 C38.682,44.574 38.388,45.336 37.932,46.332 C37.8813653,46.8704279 37.867333,47.4116717 37.89,47.952 L37.89,47.952 Z" id="Path" fill="#4C3E35"></path>
                    <path d="M37.896,47.202 C39.138,47.496 40.464,47.316 40.746,46.968 C41.0571564,46.6285114 41.0571564,46.1074886 40.746,45.768 C40.1366189,45.316898 39.4258214,45.0222776 38.676,44.91 C37.758,44.82 37.896,47.202 37.896,47.202 Z" id="Path" fill="#EEB98D"></path>
                    <path d="M39.348,47.346 C39.3,46.578 39.276,45.546 39.522,45.15 C39.2532412,45.0540414 38.9760057,44.983728 38.694,44.94 C38.636322,44.9420534 38.579455,44.9542392 38.526,44.976 C38.364,45.348 38.172,45.804 37.926,46.332 C37.926,46.554 37.89,46.764 37.884,46.932 C37.878,47.1 37.884,47.172 37.884,47.172 C38.3628017,47.2910037 38.8546432,47.3494602 39.348,47.346 Z" id="Path" fill="#E6A979"></path>
                    <path d="M36.27,56.628 C38.256,57.48 40.506,57.558 41.07,57.06 C41.634,56.562 41.874,55.644 41.436,55.128 C40.5563179,54.2008739 39.4591693,53.5079379 38.244,53.112 C36.732,52.638 36.27,56.628 36.27,56.628 Z" id="Path" fill="#624F45"></path>
                    <path d="M36.27,56.628 C36.7487946,56.8276497 37.2422536,56.9901301 37.746,57.114 C37.746,57.114 37.866,54.648 38.346,54.114 C38.826,53.58 40.44,54.228 41.646,55.692 C41.6425994,55.4735678 41.566607,55.2624778 41.43,55.092 C40.5503179,54.1648739 39.4531693,53.4719379 38.238,53.076 C38.1197796,53.0467729 37.9962204,53.0467729 37.878,53.076 C37.62,53.424 37.2,54.12 36.576,55.02 C36.4377372,55.5484596 36.3355022,56.0856942 36.27,56.628 L36.27,56.628 Z" id="Path" fill="#4C3E35"></path>
                    <path d="M36.402,55.884 C37.602,56.394 38.916,56.436 39.252,56.142 C39.6072579,55.8719322 39.7005695,55.3768625 39.468,54.996 C38.9488165,54.4435727 38.2988079,54.0308688 37.578,53.796 C36.672,53.52 36.402,55.884 36.402,55.884 Z" id="Path" fill="#EEB98D"></path>
                    <path d="M37.8,56.28 C37.878,55.512 38.034,54.48 38.34,54.144 C38.0919235,54.0029344 37.8306885,53.8863834 37.56,53.796 C37.5043673,53.7869294 37.4476327,53.7869294 37.392,53.796 C37.17,54.138 36.9,54.552 36.57,54.996 C36.51,55.212 36.462,55.422 36.42,55.596 C36.378,55.77 36.384,55.83 36.384,55.83 C36.83442,56.0409456 37.3104376,56.1922224 37.8,56.28 L37.8,56.28 Z" id="Path" fill="#E6A979"></path>
                    <path d="M67.23,87.324 C65.094,86.076 62.538,85.524 61.83,85.926 C61.122,86.328 60.708,87.168 61.134,87.762 C62.0328982,88.8884959 63.1782851,89.793721 64.482,90.408 C66.126,91.2 67.23,87.324 67.23,87.324 Z" id="Path" fill="#CA4E37"></path>
                    <path d="M67.23,87.324 C66.7120845,87.0243402 66.172596,86.7636209 65.616,86.544 C65.616,86.544 65.124,88.944 64.488,89.364 C63.852,89.784 62.088,88.836 60.954,87.138 C60.9360875,87.3507984 60.9934184,87.563135 61.116,87.738 C62.0148982,88.8644959 63.1602851,89.769721 64.464,90.384 C64.5901557,90.4427798 64.7268975,90.4754346 64.866,90.48 C65.214,90.186 65.796,89.58 66.666,88.812 C66.8943782,88.3322592 67.0830109,87.8345898 67.23,87.324 Z" id="Path" fill="#B53E2C"></path>
                    <path d="M66.972,88.032 C65.7,87.294 64.188,86.976 63.756,87.198 C63.5497378,87.2802377 63.3874725,87.445287 63.3087552,87.6529182 C63.2300379,87.8605494 63.2420994,88.0916896 63.342,88.29 C63.8765522,88.9574953 64.5556012,89.4949903 65.328,89.862 C66.318,90.324 66.972,88.032 66.972,88.032 Z" id="Path" fill="#EEB98D"></path>
                    <path d="M65.4,87.36 C65.202,88.098 64.866,89.106 64.47,89.364 C64.7353508,89.5535515 65.0163668,89.7201538 65.31,89.862 C65.3735851,89.8723064 65.4384149,89.8723064 65.502,89.862 C65.808,89.568 66.174,89.214 66.618,88.806 C66.72,88.608 66.804,88.41 66.882,88.206 L66.954,87.978 C66.4610894,87.7137841 65.9397429,87.5064532 65.4,87.36 L65.4,87.36 Z" id="Path" fill="#E6A979"></path>
                    <path d="M34.038,76.38 C34.206,75.444 34.848,72.384 35.364,71.868 C35.88,71.352 37.65,71.1 38.202,72.12 C38.754,73.14 38.478,77.802 38.478,77.802 L34.038,76.38 Z" id="Path" fill="#79553D"></path>
                    <path d="M34.974,74.61 C35.1251962,73.5762682 35.4137459,72.5673532 35.832,71.61 C35.6592625,71.6672386 35.5000163,71.7591114 35.364,71.88 C34.848,72.396 34.206,75.48 34.038,76.392 L38.478,77.814 C38.478,77.814 38.544,76.74 38.55,75.51 C37.536,74.874 34.974,74.61 34.974,74.61 Z" id="Path" fill="#694329"></path>
                    <path d="M43.89,80.748 C44.49,80.034 46.614,77.712 47.322,77.532 C48.03,77.352 49.68,78.024 49.638,79.188 C49.596,80.352 47.004,84.228 47.004,84.228 L43.89,80.748 Z" id="Path" fill="#79553D"></path>
                    <path d="M45.6,79.698 C46.2557467,78.8778348 47.0185487,78.1493387 47.868,77.532 C47.6895315,77.498793 47.5064685,77.498793 47.328,77.532 C46.62,77.712 44.52,80.034 43.896,80.748 L47.01,84.228 C47.01,84.228 47.61,83.328 48.21,82.272 C47.67,81.222 45.6,79.698 45.6,79.698 Z" id="Path" fill="#694329"></path>
                    <path d="M72.264,40.452 C72.264,41.394 72.264,44.526 71.838,45.132 C71.412,45.738 69.75,46.332 69.006,45.432 C68.262,44.532 67.626,39.918 67.626,39.918 L72.264,40.452 Z" id="Path" fill="#79553D"></path>
                    <path d="M71.688,42.366 C71.7434781,43.4128818 71.6566867,44.4624511 71.43,45.486 C71.5885556,45.3968275 71.7273585,45.2763955 71.838,45.132 C72.246,44.532 72.276,41.394 72.264,40.452 L67.626,39.918 C67.626,39.918 67.776,40.986 68.01,42.192 C69.126,42.6 71.688,42.366 71.688,42.366 Z" id="Path" fill="#694329"></path>
                    <path d="M64.896,41.262 C64.692,42.186 63.948,45.228 63.414,45.72 C62.88,46.212 61.104,46.41 60.588,45.372 C60.072,44.334 60.504,39.684 60.504,39.684 L64.896,41.262 Z" id="Path" fill="#79553D"></path>
                    <path d="M63.9,42.996 C63.7147146,44.0342121 63.3918719,45.0430956 62.94,45.996 C63.1120388,45.9387646 63.272535,45.8514059 63.414,45.738 C63.948,45.246 64.692,42.204 64.896,41.28 L60.504,39.702 C60.504,39.702 60.402,40.776 60.354,42.006 C61.35,42.648 63.9,42.996 63.9,42.996 Z" id="Path" fill="#694329"></path>
                    <path d="M87.678,70.53 C86.988,71.178 84.678,73.272 83.934,73.38 C83.19,73.488 81.642,72.648 81.798,71.496 C81.954,70.344 84.936,66.75 84.936,66.75 L87.678,70.53 Z" id="Path" fill="#624F45"></path>
                    <path d="M85.872,71.4 C85.1371372,72.1471815 84.3057904,72.7928878 83.4,73.32 C83.5727452,73.3729124 83.75382,73.3932579 83.934,73.38 C84.66,73.272 86.988,71.178 87.678,70.53 L84.936,66.75 C84.936,66.75 84.252,67.578 83.52,68.55 C83.964,69.672 85.872,71.4 85.872,71.4 Z" id="Path" fill="#4C3E35"></path>
                    <path d="M83.508,62.442 C82.56,62.484 79.434,62.568 78.81,62.178 C78.186,61.788 77.538,60.132 78.408,59.358 C79.278,58.584 83.874,57.786 83.874,57.786 L83.508,62.442 Z" id="Path" fill="#624F45"></path>
                    <path d="M81.6,61.932 C80.5542508,62.0239361 79.5009012,61.9755063 78.468,61.788 C78.5666857,61.9399885 78.6928408,62.0722478 78.84,62.178 C79.44,62.568 82.59,62.484 83.538,62.442 L83.904,57.786 C83.904,57.786 82.842,57.972 81.642,58.248 C81.24,59.4 81.6,61.932 81.6,61.932 Z" id="Path" fill="#4C3E35"></path>
                    <path d="M65.4,58.692 C63.72,59.754 63.6,60.072 63.102,60.714 C62.4800158,61.7026206 61.7203871,62.5976086 60.846,63.372 C60.1291108,63.9090758 59.5442594,64.602689 59.136,65.4 C58.944,65.754 58.536,66.816 58.188,66.558 C57.84,66.3 58.188,65.202 58.386,64.758 C58.6160137,64.3112229 58.8787291,63.8820543 59.172,63.474 C59.172,63.474 58.08,64.638 57.66,65.064 C57.24,65.49 56.184,65.112 56.736,64.38 C56.736,64.38 56.04,64.302 55.92,64.02 C55.8124582,63.7075643 55.8385053,63.3646102 55.992,63.072 C55.7526649,62.8330507 55.6773201,62.475163 55.8,62.16 C55.6618762,61.8305356 55.6448713,61.4628056 55.752,61.122 C56.1796212,60.6189277 56.6988005,60.2015482 57.282,59.892 C57.504,59.778 59.22,59.184 59.682,58.992 C60.1451672,58.7912858 60.5790922,58.5289125 60.972,58.212 C61.2309491,57.8805936 61.5337172,57.5858993 61.872,57.336 C62.334,57.024 63.222,56.244 63.222,56.244 L65.4,58.692 Z" id="Path" fill="#EEB98D"></path>
                    <path d="M56.4,64.338 C56.486968,63.9905176 56.7246199,63.7000542 57.048,63.546 C57.54,63.258 58.56,62.532 58.56,62.532 L56.76,64.41 C56.6354247,64.4242043 56.5095294,64.3990252 56.4,64.338 Z" id="Path" fill="#E6A979"></path>
                    <path d="M57.894,61.53 C57.894,61.53 56.328,62.772 55.992,63.102 C55.9220549,63.0259311 55.8652771,62.9387365 55.824,62.844 C56.298,62.484 57.894,61.53 57.894,61.53 Z" id="Path" fill="#E6A979"></path>
                    <path d="M57.564,60.726 C57.564,60.726 56.964,61.254 56.55,61.56 C56.136,61.866 55.824,62.16 55.824,62.16 C55.7933143,62.0760074 55.769241,61.9897446 55.752,61.902 C56.292,61.494 57.564,60.726 57.564,60.726 Z" id="Path" fill="#E6A979"></path>
                    <path d="M100.986,58.326 C98.334,49.23 94.2,48.06 92.07,47.832 C89.94,47.604 81.792,47.4 80.4,47.436 C77.4,47.538 74.718,47.562 73.086,48.444 C72.678,48.66 64.284,55.044 62.016,56.454 C62.124,57.144 63.912,59.706 64.968,60.468 C65.4450233,60.0201021 65.9633302,59.6183139 66.516,59.268 C67.86,58.386 74.916,53.682 75.228,53.478 C75.54,53.274 76.908,53.55 78.744,53.742 C80.22,53.898 82.86,54.414 82.86,54.414 C80.994,57.726 83.004,63.378 83.004,63.378 C83.004,63.378 84.846,70.764 88.914,71.694 C88.914,71.694 92.13,74.856 94.998,73.962 C96.685929,73.4453404 98.2685563,72.6326948 99.672,71.562 C101.358,70.266 103.428,67.476 100.986,58.326 Z" id="Path" fill="url(#linearGradient-1)"></path>
                    <path d="M91.8,66.408 C91.104,66.33 88.11,66.018 87.12,63.186 C86.8460781,63.2519532 86.5570251,63.1901709 86.334,63.018 C86.01,62.736 85.05,62.544 84.9,62.022 C84.75,61.5 85.728,60.732 85.812,60.444 C85.8878019,60.2511232 86.0430365,60.1002613 86.238,60.03 C85.9726449,57.7384054 87.4124977,55.5938897 89.634,54.972 L92.634,65.502 L91.8,66.408 Z" id="Path" fill="#EEB98D"></path>
                    <path d="M90.36,54 C90.114,53.688 90.822,53.742 91.524,53.286 C92.226,52.83 93.324,52.614 93.642,53.34 C93.96,54.066 90.36,54 90.36,54 Z" id="Path" fill="#EEB98D"></path>
                    <path d="M93.066,66.906 C92.88,67.074 93,67.506 93.822,67.38 C94.644,67.254 96.648,67.734 96.57,66.546 C96.492,65.358 93.066,66.906 93.066,66.906 Z" id="Path" fill="#EEB98D"></path>
                    <path d="M91.5,65.028 C91.806,66.144 91.2,66.828 92.292,67.014 C93.384,67.2 97.446,67.146 99.696,64.512 C101.946,61.878 101.586,58.026 100.5,56.112 C99.414,54.198 98.28,53.628 96.93,53.352 C94.921566,53.040037 92.8682198,53.1960913 90.93,53.808 C89.334,54.408 88.812,54.822 88.86,55.338 C88.908,55.854 87.342,57.69 88.506,61.17 C89.448,63.924 91.332,64.416 91.5,65.028 Z" id="Path" fill="#303034"></path>
                    <path d="M91.968,65.184 C91.902892,65.21519 91.8439474,65.257874 91.794,65.31 C91.6545123,65.4246919 91.5313706,65.5579272 91.428,65.706 C91.2721878,65.9276687 91.1695336,66.1822512 91.128,66.45 C91.1052502,66.1654662 91.150495,65.8796014 91.26,65.616 C91.3352887,65.4301505 91.4340942,65.2547204 91.554,65.094 C91.6074769,65.0079701 91.674314,64.9310062 91.752,64.866 L91.968,65.184 Z" id="Path" fill="#303034"></path>
                    <path d="M99.348,56.124 C100.29,58.428 99.876,62.874 97.614,64.896 C95.352,66.918 91.758,66.78 91.614,65.862 L91.614,65.862 C91.614,66.462 91.524,66.858 92.31,67.014 C93.408,67.224 97.458,67.146 99.714,64.512 C101.97,61.878 101.604,58.026 100.518,56.112 C99.432,54.198 98.298,53.634 96.948,53.358 C96.6784489,53.308889 96.4057749,53.2788146 96.132,53.268 C96.756,53.352 98.4,53.802 99.348,56.124 Z" id="Path" fill="#0A0D16"></path>
                    <path d="M91.95,65.226 C91.8122323,65.2134033 91.6757578,65.1893196 91.542,65.154 C91.1822571,65.0677377 90.8367414,64.9303396 90.516,64.746 C89.5554927,64.2075659 88.8033711,63.3624854 88.38,62.346 C87.9890583,61.3365594 87.8430641,60.2488003 87.954,59.172 C87.9801007,58.821329 88.0281953,58.4726429 88.098,58.128 C88.146,57.876 88.17,57.732 88.17,57.732 C88.17,57.732 88.17,57.876 88.116,58.128 C88.0603536,58.4754341 88.0282803,58.8262353 88.02,59.178 C87.9490598,60.2364293 88.1342911,61.2963638 88.56,62.268 C88.9932026,63.2222328 89.7379531,64.0008356 90.672,64.476 C90.9669534,64.6307624 91.2819582,64.743841 91.608,64.812 C91.7348336,64.8362477 91.8631004,64.852281 91.992,64.86 L91.95,65.226 Z" id="Path" fill="#303034"></path>
                    <path d="M95.676,72.99 C92.568,73.8 90.21,70.284 90.21,70.284 C90.21,70.284 84.564,68.964 83.238,63.282 C82.4873733,59.7921253 83.1821935,56.1470249 85.164,53.178 C85.164,53.178 76.392,51.732 75.312,51.828 C74.232,51.924 66.186,58.074 64.086,59.628 C64.3518269,59.9400638 64.6494323,60.2235933 64.974,60.474 C65.4510233,60.0261021 65.9693302,59.6243139 66.522,59.274 C67.866,58.392 74.922,53.688 75.234,53.484 C75.546,53.28 76.914,53.556 78.75,53.748 C80.226,53.904 82.866,54.42 82.866,54.42 C81,57.732 83.01,63.384 83.01,63.384 L83.01,63.384 C83.01,63.384 84.852,70.77 88.92,71.7 C88.92,71.7 92.136,74.862 95.004,73.968 C96.691929,73.4513404 98.2745563,72.6386948 99.678,71.568 C100.420204,71.0093584 101.006864,70.2698355 101.382,69.42 C101.316,69.474 98.742,72.192 95.676,72.99 Z" id="Path" fill="#E6E6E6" style="mix-blend-mode: multiply;"></path>
                    <path d="M61.992,64.092 C61.992,64.092 60.516,62.178 58.248,62.34 C55.98,62.502 56.094,63.978 56.094,63.978 L61.41,65.856 L62.154,64.974 L61.992,64.092 Z" id="Path" fill="#E6A979"></path>
                    <path d="M53.49,62.472 C54.5209053,62.3878305 55.5426668,62.215195 56.544,61.956 C57.33,61.782 57.594,61.428 58.68,61.554 C59.43253,61.6101716 60.1715513,61.7842971 60.87,62.07 C61.17,62.232 61.56,62.376 61.956,62.592 C62.352,62.808 62.52,63.252 61.638,63.276 C61.0946777,63.2562705 60.5605406,63.1298717 60.066,62.904 C59.3854053,62.8282627 58.6964895,62.9061758 58.05,63.132 C57.486,63.306 57.138,63.48 57.642,63.678 C58.146,63.876 59.406,64.23 59.946,64.482 C60.486,64.734 61.338,65.28 61.338,65.28 C61.338,65.28 61.644,64.68 61.812,64.638 C61.7079756,64.3340336 61.6473778,64.0169053 61.632,63.696 C61.632,63.318 62.232,62.946 62.376,63.51 C62.5706782,64.0440435 62.6976675,64.6003776 62.754,65.166 C62.4575389,65.6763923 62.1288737,66.167386 61.77,66.636 C61.698,66.738 60.648,66.786 60.252,66.924 C59.7444027,67.1085983 59.2130329,67.2197213 58.674,67.254 C58.422,67.206 57.366,66.654 56.676,66.426 C55.7451036,66.1022147 54.7632492,65.9497528 53.778,65.976 L53.49,62.472 Z" id="Path" fill="#EEB98D"></path>
                    <path d="M53.526,62.19 C53.526,62.19 51.222,61.992 50.1,61.734 L50.1,61.734 C47.784,61.17 43.71,60.396 41.292,60.804 L33.6,57.672 L33.6,57.6 C35.2478265,57.8343573 36.8443965,56.9199131 37.476,55.38 C38.514,52.98 37.602,50.862 38.076,48.876 C38.55,46.89 40.068,43.29 38.676,40.746 C38.016,39.546 37.14,39.204 35.868,38.892 C35.1395774,37.6305691 34.1468705,36.5416617 32.958,35.7 C31.338,34.632 28.956,34.428 27.702,34.92 C24.27,36.264 21.738,40.488 20.346,47.592 C19.8721434,50.5246639 20.0110633,53.5236998 20.754,56.4 C21.606,59.148 24.39,62.538 30.174,64.05 C35.958,65.562 39.99,66.318 40.638,66.45 C41.286,66.582 47.238,66.5400814 49.638,66.504 C50.298,66.504 50.838,66.462 51.36,66.426 L51.36,66.426 L51.498,66.426 C52.53,66.354 53.298,66.252 53.778,66.198 C53.808,66.144 54.486,62.682 53.526,62.19 Z" id="Path" fill="url(#linearGradient-2)"></path>
                    <path d="M33.288,50.13 C33.438,49.788 33.018,49.446 32.928,49.116 C32.8752414,48.9235568 32.7206566,48.7758937 32.526,48.732 C32.7333309,48.2843823 32.8670506,47.8062329 32.922,47.316 C32.8784508,46.4532274 32.6229139,45.6144895 32.178,44.874 C31.7727064,44.092546 31.1813143,43.4228512 30.456,42.924 C29.568,42.24 29.658,42.168 29.622,41.796 C29.586,41.424 28.944,41.076 28.722,40.872 C28.5,40.668 27.204,39.738 26.586,40.59 C25.968,41.442 22.716,51.708 22.746,51.93 C22.8435384,52.3194866 23.1965377,52.5904509 23.598,52.584 C24.198,52.62 25.512,53.046 25.644,52.542 C26.3724116,52.7923208 27.1435561,52.8943241 27.912,52.842 C29.286,52.776 31.194,51.936 31.722,50.79 C31.9076406,50.8971797 32.1363594,50.8971797 32.322,50.79 C32.616,50.562 33.066,50.634 33.288,50.13 Z" id="Path" fill="#EEB98D"></path>
                    <path d="M32.616,44.754 C33.66,45.468 33.666,46.17 33.306,47.304 C33.161972,47.8188565 32.9607168,48.3159568 32.706,48.786 C32.6914365,49.2484206 32.5980978,49.7049686 32.43,50.136 C32.321862,50.4324124 32.137709,50.6951925 31.896,50.898 C31.7906139,51.361194 31.6080673,51.8033624 31.356,52.206 C31.266,52.386 31.17,52.56 31.086,52.734 C30.876,53.178 30.486,53.73 30.108,53.826 C29.9792509,53.8615853 29.8414015,53.8397044 29.73,53.766 L29.946,53.466 C29.946,53.466 29.976,53.466 30.018,53.466 C30.3587362,53.2581324 30.618905,52.9408533 30.756,52.566 C30.84,52.386 30.936,52.206 31.038,52.026 C31.2815919,51.640331 31.4524155,51.213272 31.542,50.766 L31.542,50.652 L31.65,50.61 L31.65,50.61 C31.8578026,50.4479667 32.0107203,50.2259217 32.088,49.974 C32.2441268,49.5740151 32.3274391,49.1493255 32.334,48.72 L32.334,48.66 L32.4,48.6 C32.6600805,48.149417 32.8617033,47.6675386 33,47.166 C33.366,46.02 33.252,45.576 32.454,45.03 L32.616,44.754 Z" id="Path" fill="#0A0D16"></path>
                    <path d="M30.912,45.126 C31.584,45.894 31.968,47.13 30.99,48.972 C30.012,50.814 30.738,53.454 31.968,53.478 C31.0927855,53.5335912 30.3164878,52.920316 30.168,52.056 C30.168,52.056 29.568,54.036 31.368,54.6 C31.0220207,54.7289485 30.6372749,54.7027158 30.312,54.528 C29.754,54.24 29.484,54.69 28.656,54.39 C28.1550466,54.2052306 27.7417588,53.8390533 27.498,53.364 C27.5776529,54.0512283 28.044129,54.631991 28.698,54.858 C28.1588441,55.0154557 27.5784882,54.9415527 27.096,54.654 C26.082,54.174 24.852,54.054 23.496,53.598 C22.14,53.142 20.094,52.338 19.17,50.88 C18.246,49.422 17.502,47.88 18.348,45.528 C18.8330476,44.1613602 19.6991622,42.9621246 20.844,42.072 C20.7051157,41.4073209 21.0104188,40.7288696 21.6,40.392 C22.686,39.69 26.274,39.522 29.532,40.956 C32.79,42.39 33.066,44.556 33.012,45.942 C32.9107912,45.502404 32.5984936,45.1414365 32.1780246,44.9780542 C31.7575557,44.814672 31.2834691,44.8700731 30.912,45.126 L30.912,45.126 Z" id="Path" fill="#4C4C4C"></path>
                    <path d="M18.234,49.242 C17.316,46.704 20.634,42.72 22.35,43.578 C24.066,44.436 23.31,45.378 23.31,45.378 C25.1049716,44.3750337 27.3300133,44.5675854 28.926,45.864 C31.926,48.054 29.652,50.118 30.126,52.05 C30.2744878,52.914316 31.0507855,53.5275912 31.926,53.472 C30.696,53.472 29.964,50.802 30.948,48.966 C31.932,47.13 31.548,45.888 30.87,45.12 C25.164,41.52 20.718,42.066 20.718,42.066 C19.5731622,42.9561246 18.7070476,44.1553602 18.222,45.522 C17.7508807,46.7180485 17.7551741,48.0490158 18.234,49.242 L18.234,49.242 Z" id="Path" fill="#333333"></path>
                    <path d="M21.6,40.392 C21.2349735,40.6070347 20.9616621,40.9486739 20.832,41.352 C21.528,40.068 24.636,39.87 25.722,40.8 C26.808,41.73 27.294,41.052 29.652,41.796 C31.4537546,42.4456339 32.7443515,44.0438463 33,45.942 C33.054,44.568 32.784,42.39 29.52,40.956 C26.256,39.522 22.656,39.69 21.6,40.392 Z" id="Path" fill="#333333"></path>
                    <path d="M53.526,62.19 C53.526,62.19 51.222,61.992 50.1,61.734 L50.1,61.734 C47.784,61.17 43.71,60.396 41.292,60.804 L33.6,57.672 L33.6,57.6 C35.2478265,57.8343573 36.8443965,56.9199131 37.476,55.38 C37.9246253,54.2488762 38.0973923,53.0271667 37.98,51.816 C37.98,52.974 37.038,56.298 35.046,56.616 C33.054,56.934 30.798,57.396 30.798,57.396 C30.798,57.396 41.19,62.448 41.49,62.352 C45.6737826,62.2654194 49.8576564,62.5202645 54,63.114 C53.9903546,62.7500414 53.8159919,62.4101445 53.526,62.19 Z" id="Path" fill="#E6E6E6" style="mix-blend-mode: multiply;"></path>
                    <path d="M36.918,39.222 C35.8979713,38.8497999 34.8175648,38.6707494 33.732,38.694 C33.732,38.694 39.516,40.428 38.664,46.734 C39.186,44.832 39.648,42.534 38.664,40.734 C38.2930087,40.0282397 37.6695343,39.4883238 36.918,39.222 L36.918,39.222 Z" id="Path" fill="url(#linearGradient-3)"></path>
                    <path d="M60.858,63.636 L60.186,63.672 C58.734,63.672 57.282,63.516 55.836,63.672 C56.1698809,64.2878615 56.4528244,64.9300027 56.682,65.592 C56.982,66.192 56.808,68.286 56.634,68.838 C57.714,69.018 59.424,68.658 60.474,68.946 C60.546,68.496 60.594,68.142 60.606,67.95 C60.7413868,67.0285862 60.7836,66.0958766 60.732,65.166 C60.669245,64.6527435 60.7121236,64.1320751 60.858,63.636 Z" id="Path" fill="#EEB98D"></path>
                    <path d="M60.864,66.93 C59.004,66.192 56.772,66.972 56.772,66.972 L55.05,77.898 C54.498,78.6 48.6,84.402 48.6,84.402 C48.6,84.402 47.172,82.002 45.438,80.868 C44.304,80.112 43.44,79.536 41.922,78.648 C41.922,78.648 36.522,74.448 32.322,75.528 C31.7078265,75.6763429 31.1301607,75.9478254 30.624,76.326 C28.5973427,75.6275614 26.3511814,76.0873692 24.762,77.526 C21.828,79.968 24.564,85.446 24.564,85.446 C24.564,85.446 26.406,88.788 28.38,90.174 C29.3679906,90.828521 30.4241924,91.3737223 31.53,91.8 L31.248,92.214 L31.206,92.262 C33.72,93.702 38.592,96.462 39.534,96.648 C40.818,96.918 46.638,97.29 48.534,95.448 C50.43,93.606 53.058,90.402 54.012,89.244 C54.966,88.086 58.458,84.084 59.724,82.152 C60.4537684,80.8662936 60.7994372,79.3982427 60.72,77.922 C61.128,75.294 60.864,66.93 60.864,66.93 Z" id="Path" fill="url(#linearGradient-4)"></path>
                    <path d="M32.322,85.074 C33.4854739,84.2808746 34.9190292,83.9889742 36.3,84.264 C36.8109821,84.3799323 37.3078865,84.5509318 37.782,84.774 C37.782,84.774 38.73,84.222 39.054,84.324 C39.378,84.426 39.408,85.344 39.252,85.686 C39.252,85.686 41.832,87.762 40.89,90.198 L39.252,93.798 L30.252,89.7 L32.322,85.074 Z" id="Path" fill="#EEB98D"></path>
                    <path d="M30.636,86.322 C30.462,86.196 29.874,86.418 29.232,87.108 C28.59,87.798 28.29,88.566 28.704,88.998 C29.118,89.43 30.636,86.322 30.636,86.322 Z" id="Path" fill="#EEB98D"></path>
                    <path d="M40.848,93.168 C40.848,93.168 41.328,93.552 40.746,94.842 C40.164,96.132 39.336,96.042 39.09,95.682 C38.844,95.322 40.848,93.168 40.848,93.168 Z" id="Path" fill="#EEB98D"></path>
                    <path d="M33,84.714 C32.5461302,85.2511117 32.2492386,85.9030276 32.142,86.598 C32.142,86.598 34.254,84.852 36.996,86.754 C36.996,86.754 35.046,86.358 34.596,86.754 C34.596,86.754 39.12,87.252 39.468,90.726 C39.2478684,90.3555469 38.9384531,90.0461316 38.568,89.826 C38.931563,90.4667052 39.167895,91.1716268 39.264,91.902 C40.0629519,91.1118942 40.6775834,90.1551178 41.064,89.1 C41.5417518,90.4244517 41.4527701,91.887224 40.818,93.144 C39.774,95.448 37.602,98.07 35.622,98.724 C33.642,99.378 30.504,97.524 29.436,96.57 C27.5168341,94.6373416 27.1262796,91.6602846 28.482,89.298 C30.378,86.118 31.704,85.164 33,84.714 Z" id="Path" fill="#82442A"></path>
                    <path d="M31.098,97.728 C30.5163681,97.4095909 29.9694263,97.0315576 29.466,96.6 C27.5468341,94.6673416 27.1562796,91.6902846 28.512,89.328 C30.378,86.124 31.704,85.17 33.012,84.72 C32.5581302,85.2571117 32.2612386,85.9090276 32.154,86.604 C32.154,86.604 34.266,84.858 37.008,86.76 C37.008,86.76 35.058,86.364 34.608,86.76 C34.9383582,86.8022689 35.2652156,86.8684425 35.586,86.958 C34.608,86.76 29.424,88.158 29.586,92.898 C29.8610518,91.8609961 30.6247402,91.0234025 31.632,90.654 C31.632,90.654 28.656,94.908 31.098,97.728 Z" id="Path" fill="#6F331F"></path>
                    <path d="M40.062,92.646 C38.052,96.072 35.862,96.99 35.862,96.99 C39.858,93.24 38.616,89.85 38.616,89.85 C38.979563,90.4907052 39.215895,91.1956268 39.312,91.926 C40.1109519,91.1358942 40.7255834,90.1791178 41.112,89.124 C41.5897518,90.4484517 41.5007701,91.911224 40.866,93.168 C40.361253,94.245668 39.7199921,95.2539399 38.958,96.168 C40.2,93.93 40.062,92.646 40.062,92.646 Z" id="Path" fill="#6F331F"></path>
                    <path d="M57.708,66.744 C57.3935971,66.7981605 57.0829671,66.8723109 56.778,66.966 L56.778,66.966 L55.062,77.892 C54.498,78.6 48.6,84.402 48.6,84.402 C48.6,84.402 47.172,82.002 45.438,80.868 C44.304,80.112 43.44,79.536 41.922,78.648 C41.922,78.648 36.522,74.448 32.322,75.528 C31.7870819,75.6640904 31.2796439,75.8914226 30.822,76.2 L30.822,76.2 L30.648,76.32 C28.6213427,75.6215614 26.3751814,76.0813692 24.786,77.52 C23.835919,78.3624918 23.3250223,79.5943941 23.4,80.862 C24.372,76.308 29.142,77.106 29.868,77.55 C33.7392978,76.5084021 37.8731989,77.2380433 41.154,79.542 C46.656,83.436 47.874,87.03 47.874,87.03 C47.874,87.03 55.86,79.692 56.232,79.002 C56.55,78.402 57.372,69.012 57.684,66.744 L57.708,66.744 Z" id="Path" fill="#E6E6E6" style="mix-blend-mode: multiply;"></path>
                    <path d="M60.882,65.784 C60.2598321,65.2679362 59.4820862,64.9762815 58.674,64.956 C58.674,64.956 57.612,62.118 60.942,61.566 C60.942,61.566 62.364,62.388 62.79,62.688 C63.216,62.988 60.882,65.784 60.882,65.784 Z" id="Path" fill="#EEB98D"></path>
                    <path d="M82.524,79.65 C80.3592691,75.8420189 77.8272109,72.2549364 74.964,68.94 C74.082,67.884 62.694,62.196 62.694,62.196 C60.702,62.664 60.294,65.892 60.768,66.18 C60.768,66.18 70.764,72.534 71.028,72.93 C71.292,73.326 73.866,77.922 75.42,80.4 C75.948,81.24 75.9,81.39 74.508,81.894 C72.384,82.656 68.064,84.108 65.88,87.696 L65.88,87.696 C64.9983023,89.0829735 64.5937883,90.7199909 64.728,92.358 C64.728,92.358 61.926,93.318 62.928,96.222 C63.93,99.126 66.012,100.728 68.046,100.794 C70.08,100.86 73.488,99.594 77.196,97.404 C77.196,97.404 73.722,87.906 73.284,87.942 C73.146,87.942 72.294,87.942 71.22,87.894 C72.852,87.414 74.166,87.006 74.166,87.006 L78.654,96.462 C78.654,96.462 82.77,94.422 84.246,91.062 C84.954,89.4 85.254,84.654 82.524,79.65 Z" id="Path" fill="url(#linearGradient-5)"></path>
                    <path d="M63.882,97.332 C62.436,94.128 65.994,93.132 65.994,93.132 C65.85,90.912 67.272,85.932 70.488,84.486 C73.704,83.04 78.024,82.368 77.868,81.72 C77.712,81.072 73.344,73.53 72.114,71.634 C70.962,69.834 63.858,66.234 60.714,64.77 C60.57,65.478 60.606,66.078 60.798,66.198 C60.798,66.198 70.794,72.552 71.058,72.948 C71.322,73.344 73.896,77.94 75.45,80.418 C75.978,81.258 75.93,81.408 74.538,81.912 C72.414,82.674 68.094,84.126 65.91,87.714 L65.91,87.714 C65.0283023,89.1009735 64.6237883,90.7379909 64.758,92.376 C64.758,92.376 61.956,93.336 62.958,96.24 C63.96,99.144 66.042,100.746 68.076,100.812 C68.046,100.8 65.322,100.536 63.882,97.332 Z" id="Path" fill="#E6E6E6" style="mix-blend-mode: multiply;"></path>
                    <path d="M68.766,84.384 C68.472,84.636 68.706,85.134 68.646,85.47 C68.6065854,85.6710505 68.6830398,85.8772458 68.844,86.004 C68.4536542,86.3224192 68.1190755,86.7036361 67.854,87.132 C67.5136581,87.9425833 67.3796583,88.8249204 67.464,89.7 C67.4926853,90.5959617 67.7398525,91.4713453 68.184,92.25 C68.7,93.264 68.586,93.294 68.454,93.648 C68.322,94.002 68.76,94.614 68.874,94.89 C68.988,95.166 69.768,96.6 70.71,96.09 C71.652,95.58 79.152,87.6 79.2,87.378 C79.2842614,86.9787092 79.0796677,86.5745119 78.708,86.406 C78.198,86.118 77.154,85.14 76.812,85.542 C76.2573317,84.9901035 75.5958228,84.5572643 74.868,84.27 C73.572,83.724 71.454,83.67 70.464,84.468 C70.335226,84.292804 70.1217466,84.2009849 69.906,84.228 C69.6,84.282 69.186,84 68.766,84.384 Z" id="Path" fill="#EEB98D"></path>
                    <path d="M76.332,97.392 C74.73,98.316 72.486,97.602 70.71,96.096 C69.3987159,94.9358199 68.3931401,93.470729 67.782,91.83 C67.578,91.2 68.328,90.336 68.526,89.664 C68.724,88.992 69.024,87.006 70.848,85.854 C72.672,84.702 74.586,85.152 75.252,84.978 C75.918,84.804 76.314,84.978 77.25,85.668 C78.4523812,86.5150623 79.4573515,87.6121378 80.196,88.884 C80.868,90.24 81.294,91.812 80.796,92.844 C81.6079763,92.7530755 82.3676318,93.2595125 82.596,94.044 C83.136,95.442 82.212,96.984 80.31,98.244 C78.726,99.294 76.608,99.174 76.332,97.392 Z" id="Path" fill="#ED7A2B"></path>
                    <path d="M68.67,89.82 C68.67,89.82 68.67,89.676 68.67,89.388 C68.6892211,89.0038643 68.7434458,88.6222831 68.832,88.248 C69.0971381,87.1043077 69.7824481,86.1020418 70.752,85.44 C71.2623559,85.0989118 71.8322348,84.8567133 72.432,84.726 C73.032,84.606 73.548,84.582 74.004,84.516 C74.5183343,84.4732488 75.0106605,84.2883667 75.426,83.982 C75.3163026,84.0718869 75.197683,84.1502964 75.072,84.216 C74.743667,84.3954349 74.3861431,84.5152867 74.016,84.57 C73.56,84.654 73.014,84.696 72.462,84.834 C71.8835216,84.9804213 71.3379408,85.23489 70.854,85.584 C69.9561721,86.2457937 69.3428961,87.2236044 69.138,88.32 C69.0332732,88.8086182 69.0009275,89.3099754 69.042,89.808 L68.67,89.82 Z" id="Path" fill="#ED7A2B"></path>
                    <path d="M68.754,90.402 C68.754,90.402 68.754,90.234 68.802,89.976 C68.85,89.718 68.802,89.316 68.844,88.83 C68.8755566,88.2597248 69.0645519,87.709354 69.39,87.24 C69.7805044,86.7332225 70.2731504,86.3141668 70.836,86.01 C71.1128388,85.8475403 71.4040725,85.7109618 71.706,85.602 C72.018,85.518 72.306,85.458 72.606,85.392 C73.1367484,85.283472 73.6614637,85.1472863 74.178,84.984 C74.6875782,84.8429799 75.1577646,84.586328 75.552,84.234 C75.1670643,84.6016866 74.7032881,84.8766689 74.196,85.038 C73.746,85.206 73.212,85.356 72.636,85.506 C72.348,85.578 72.036,85.65 71.754,85.74 C71.4634959,85.8518384 71.1858926,85.9946633 70.926,86.166 C70.4047204,86.4708536 69.9514051,86.8792457 69.594,87.366 C69.3125232,87.8027748 69.1606505,88.3104042 69.156,88.83 C69.156,89.292 69.156,89.688 69.156,89.982 C69.1519394,90.1325296 69.1399227,90.2827393 69.12,90.432 L68.754,90.402 Z" id="Path" fill="#ED7A2B"></path>
                    <path d="M77.4,96.096 C77.826,94.032 80.802,92.844 80.802,92.844 C78.402,92.778 77.88,95.592 74.766,95.694 C71.652,95.796 68.766,91.242 68.838,88.8 L68.796,88.8 C68.688,89.16 68.616,89.466 68.556,89.658 C68.358,90.33 67.608,91.194 67.812,91.824 C68.4231401,93.464729 69.4287159,94.9298199 70.74,96.09 C72.54,97.596 74.76,98.31 76.362,97.386 C76.638,99.186 78.762,99.288 80.31,98.244 C81.63,97.362 82.464,96.342 82.68,95.34 C81.042,97.53 76.938,98.16 77.4,96.096 Z" id="Path" fill="#E07022"></path>
                    <path d="M54.978,40.2 C53.3651072,41.7783401 52.5855249,44.0215826 52.872,46.26 C52.872,46.26 53.976,49.86 54.39,52.26 C54.804,54.66 54.918,55.59 55.752,56.826 C56.586,58.062 56.502,58.362 57.708,59.046 C58.914,59.73 59.73,59.898 60.108,60.366 C60.486,60.834 60.648,61.212 61.008,61.566 C61.368,61.92 61.32,62.634 61.506,62.934 C61.692,63.234 61.71,63.42 61.506,63.588 C61.302,63.756 60.906,63.588 60.906,63.588 C60.813274,63.732629 60.6699283,63.8374639 60.504,63.882 C60.3224446,63.9395044 60.1275554,63.9395044 59.946,63.882 C59.8160237,64.3070702 59.3865266,64.5658034 58.95,64.482 C58.8374542,64.6877582 58.6471025,64.8397948 58.4215565,64.9040754 C58.1960105,64.968356 57.9541078,64.9395119 57.75,64.824 C57.75,64.824 57.816,64.938 57.312,65.13 C56.808,65.322 56.148,64.488 55.86,64.14 C55.5555864,63.8713371 55.2891426,63.5625045 55.068,63.222 C54.635384,62.6786443 54.2480844,62.100705 53.91,61.494 C53.718,60.99 53.778,60.36 53.448,59.91 C53.118,59.46 49.494,52.698 48.396,50.4 C47.298,48.102 46.722,46.8 46.8,45.984 C46.878,45.168 47.292,44.538 48.474,43.164 C49.656,41.79 51.102,39.702 51.102,39.702 L54.978,40.2 Z" id="Path" fill="#EEB98D"></path>
                    <path d="M60.978,63.132 C60.942,63.006 60.498,62.226 60.378,61.974 C60.1549587,61.5917586 59.8848501,61.2390049 59.574,60.924 C59.424,60.822 58.836,60.186 58.836,60.186 C59.0005642,60.3308093 59.1772074,60.4612844 59.364,60.576 C59.6976208,60.7879097 59.9903023,61.0582336 60.228,61.374 C60.6395686,61.9398123 60.9669708,62.5622807 61.2,63.222 C61.314,63.618 61.506,63.648 61.506,63.648 C61.296,63.822 60.906,63.648 60.906,63.648 C60.9965091,63.492018 61.0223534,63.3068 60.978,63.132 L60.978,63.132 Z" id="Path" fill="#E6A979"></path>
                    <path d="M60.078,63.96 C60.0203564,63.9504429 59.9639917,63.9343387 59.91,63.912 C59.6967625,63.621508 59.5344511,63.2968852 59.43,62.952 C59.376,62.832 59.43,62.808 59.496,62.784 C59.562,62.76 59.91,63.912 60.078,63.96 Z" id="Path" fill="#E6A979"></path>
                    <path d="M58.266,63.534 C58.344,63.492 58.722,64.308 59.076,64.53 C59.0220446,64.5331047 58.9679554,64.5331047 58.914,64.53 C58.7199876,64.3756764 58.5518699,64.1913546 58.416,63.984 C58.236,63.696 58.2,63.6 58.266,63.534 Z" id="Path" fill="#E6A979"></path>
                    <path d="M57.354,64.362 C57.4560421,64.54732 57.5788313,64.7204326 57.72,64.878 C57.72,64.878 57.72,64.908 57.684,64.962 C57.414,64.764 57.012,64.188 57.084,64.128 C57.156,64.068 57.246,64.134 57.354,64.362 Z" id="Path" fill="#E6A979"></path>
                    <path d="M59.526,61.056 C59.658,61.218 59.676,61.344 59.394,61.608 C59.112,61.872 59.058,61.782 58.854,62.022 C58.65,62.262 58.44,62.568 58.122,62.592 C57.804,62.616 57.666,62.802 57.426,63.048 C57.186,63.294 56.934,63.18 56.784,63.336 C56.5627691,63.5689522 56.2892149,63.745837 55.986,63.852 C55.716,63.912 55.386,63.078 55.278,62.514 C55.17,61.95 56.742,60.222 57.426,60.114 C58.2269788,60.1202957 58.9886639,60.4619659 59.526,61.056 Z" id="Path" fill="url(#linearGradient-6)" opacity="0.4"></path>
                    <path d="M47.07,47.154 C47.298,47.706 53.028,47.154 53.238,46.308 C53.28,46.14 52.854,45.75 53.076,45.204 C54,42.918 56.58,38.346 56.58,38.346 C56.58,38.346 59.244,40.554 61.29,40.896 C62.634,41.118 63.66,41.292 65.406,41.496 C66.324,41.592 67.446,41.7 68.91,41.814 C71.5819587,41.9491003 74.2000318,41.0290038 76.2,39.252 C77.3672678,39.3602274 78.5421818,39.1530115 79.602,38.652 C80.628,38.136 81.306,37.674 81.684,35.394 C82.284,31.65 81.684,30.204 79.284,28.194 C77.0106883,26.2745974 74.3051006,24.9362169 71.4,24.294 C71.4,24.294 61.476,23.802 60.192,24.078 C58.908,24.354 53.472,26.4 52.494,28.848 C51.516,31.296 50.274,34.422 49.884,35.868 C49.494,37.314 47.616,42.024 46.884,44.226 C46.314,46.122 46.8,46.47 47.07,47.154 Z" id="Path" fill="url(#linearGradient-7)"></path>
                    <path d="M72.036,30.6 C71.736,31.2 70.458,33.81 67.566,33.768 C67.5327531,34.0369446 67.3808635,34.2768861 67.152,34.422 C66.786,34.62 66.294,35.424 65.772,35.388 C65.25,35.352 64.884,34.188 64.644,34.038 C64.4963732,33.9049535 64.4132805,33.714715 64.416,33.516 C62.2521203,32.9946466 60.7889523,30.9767471 60.966,28.758 L71.484,29.574 L72.036,30.6 Z" id="Path" fill="#EEB98D"></path>
                    <path d="M60.336,27.756 C59.97,27.876 60.252,27.252 60.072,26.466 C59.892,25.68 60.072,24.594 60.822,24.564 C61.572,24.534 60.336,27.756 60.336,27.756 Z" id="Path" fill="#EEB98D"></path>
                    <path d="M72.918,29.592 C73.008,29.814 73.452,29.856 73.596,29.064 C73.74,28.272 74.856,26.628 73.752,26.304 C72.648,25.98 72.918,29.592 72.918,29.592 Z" id="Path" fill="#EEB98D"></path>
                    <path d="M70.692,30.384 C71.808,30.48 72.198,31.248 72.756,30.324 C73.314,29.4 74.556,25.71 72.954,22.794 C71.352,19.878 67.704,18.93 65.61,19.272 C63.516,19.614 62.61,20.472 61.926,21.594 C61.0728249,23.3387775 60.5403518,25.2227568 60.354,27.156 C60.234,28.794 60.642,30.24 61.122,30.366 C61.602,30.492 62.406,29.628 63.066,29.724 C63.726,29.82 64.152,31.554 66.216,31.794 C69,32.124 70.086,30.336 70.692,30.384 Z" id="Path" fill="#CD9F43"></path>
                    <path d="M65.238,20.322 C67.638,20.238 71.526,22.086 72.606,24.804 C73.686,27.522 72.366,30.732 71.484,30.576 L71.484,30.576 C72.042,30.78 72.36,30.984 72.756,30.324 C73.314,29.406 74.556,25.71 72.954,22.794 C71.352,19.878 67.704,18.93 65.61,19.272 C63.516,19.614 62.61,20.472 61.926,21.594 C61.7945369,21.820011 61.6782793,22.0545304 61.578,22.296 C61.872,21.75 62.82,20.4 65.238,20.322 Z" id="Path" fill="#B88B39"></path>
                    <path d="M52.956,45.408 C53.382,45.318 53.46,47.1 53.322,47.424 C53.184,47.748 47.784,49.164 47.538,48.864 C47.292,48.564 46.338,46.41 46.602,46.086 C46.866,45.762 49.452,45.486 50.202,45.486 C50.952,45.486 52.956,45.408 52.956,45.408 Z" id="Path" fill="#A28ADB"></path>
                    <path d="M52.956,45.408 C53.382,45.318 53.46,47.1 53.322,47.424 C53.184,47.748 47.784,49.164 47.538,48.864 C47.292,48.564 46.338,46.41 46.602,46.086 C46.866,45.762 49.452,45.486 50.202,45.486 C50.952,45.486 52.956,45.408 52.956,45.408 Z" id="Path" fill="#00923D"></path>
                    <path d="M80.004,37.344 C78.48,37.758 77.07,37.344 76.242,36.144 L76.242,36.144 C76.242,36.144 71.646,40.884 66.21,40.296 C60.774,39.708 56.334,34.722 56.334,34.722 C56.334,34.722 51.924,42.708 51.534,45.396 L51.366,45.396 C51.312,46.128 52.182,47.454 52.416,47.796 C52.7395435,47.7201182 53.0465559,47.5859273 53.322,47.4 C53.454,47.094 53.388,45.516 53.022,45.402 C53.0299514,45.3259112 53.0481147,45.25124 53.076,45.18 C54,42.918 56.58,38.346 56.58,38.346 C56.58,38.346 59.244,40.554 61.29,40.896 C62.634,41.118 63.66,41.292 65.406,41.496 C66.324,41.592 67.446,41.7 68.91,41.814 C71.5804774,41.946215 74.1967849,41.0288924 76.2,39.258 L76.2,39.258 C77.3672678,39.3662274 78.5421818,39.1590115 79.602,38.658 C80.628,38.142 81.306,37.68 81.684,35.4 C81.7990947,34.7395142 81.8692558,34.0719821 81.894,33.402 C81.714,34.44 81.21,37.014 80.004,37.344 Z" id="Path" fill="#E6E6E6" style="mix-blend-mode: multiply;"></path>
                </g>
            </g>
        </g>
    </g>
</svg>