<?xml version="1.0" encoding="UTF-8"?>
<svg width="120px" height="120px" viewBox="0 0 120 120" version="1.1" xmlns="http://www.w3.org/2000/svg" xmlns:xlink="http://www.w3.org/1999/xlink">
    <title>icn_fairness-</title>
    <defs>
        <linearGradient x1="49.9940402%" y1="100.013672%" x2="49.9940402%" y2="-0.0136724091%" id="linearGradient-1">
            <stop stop-color="#37843B" offset="0%"></stop>
            <stop stop-color="#289B2B" offset="20%"></stop>
            <stop stop-color="#12BB13" offset="53%"></stop>
            <stop stop-color="#05CF05" offset="81%"></stop>
            <stop stop-color="#00D600" offset="100%"></stop>
        </linearGradient>
        <linearGradient x1="-6.16113744%" y1="51.4350132%" x2="100%" y2="51.4350132%" id="linearGradient-2">
            <stop stop-color="#37843B" offset="0%"></stop>
            <stop stop-color="#289B2B" offset="20%"></stop>
            <stop stop-color="#12BB13" offset="53%"></stop>
            <stop stop-color="#05CF05" offset="81%"></stop>
            <stop stop-color="#00D600" offset="100%"></stop>
        </linearGradient>
        <linearGradient x1="0%" y1="50.1159979%" x2="100%" y2="50.1159979%" id="linearGradient-3">
            <stop stop-color="#37843B" offset="0%"></stop>
            <stop stop-color="#289B2B" offset="20%"></stop>
            <stop stop-color="#12BB13" offset="53%"></stop>
            <stop stop-color="#05CF05" offset="81%"></stop>
            <stop stop-color="#00D600" offset="100%"></stop>
        </linearGradient>
        <linearGradient x1="-2.73972603%" y1="49.3704317%" x2="100%" y2="49.3704317%" id="linearGradient-4">
            <stop stop-color="#37843B" offset="0%"></stop>
            <stop stop-color="#289B2B" offset="20%"></stop>
            <stop stop-color="#12BB13" offset="53%"></stop>
            <stop stop-color="#05CF05" offset="81%"></stop>
            <stop stop-color="#00D600" offset="100%"></stop>
        </linearGradient>
        <linearGradient x1="0%" y1="50.2829787%" x2="100%" y2="50.2829787%" id="linearGradient-5">
            <stop stop-color="#37843B" offset="0%"></stop>
            <stop stop-color="#289B2B" offset="20%"></stop>
            <stop stop-color="#12BB13" offset="53%"></stop>
            <stop stop-color="#05CF05" offset="81%"></stop>
            <stop stop-color="#00D600" offset="100%"></stop>
        </linearGradient>
        <linearGradient x1="-3.7037037%" y1="49.5038169%" x2="100%" y2="49.5038169%" id="linearGradient-6">
            <stop stop-color="#37843B" offset="0%"></stop>
            <stop stop-color="#289B2B" offset="20%"></stop>
            <stop stop-color="#12BB13" offset="53%"></stop>
            <stop stop-color="#05CF05" offset="81%"></stop>
            <stop stop-color="#00D600" offset="100%"></stop>
        </linearGradient>
        <linearGradient x1="-2.27272727%" y1="50.7863864%" x2="100%" y2="50.7863864%" id="linearGradient-7">
            <stop stop-color="#37843B" offset="0%"></stop>
            <stop stop-color="#289B2B" offset="20%"></stop>
            <stop stop-color="#12BB13" offset="53%"></stop>
            <stop stop-color="#05CF05" offset="81%"></stop>
            <stop stop-color="#00D600" offset="100%"></stop>
        </linearGradient>
        <linearGradient x1="0%" y1="49.122807%" x2="100%" y2="49.122807%" id="linearGradient-8">
            <stop stop-color="#37843B" offset="0%"></stop>
            <stop stop-color="#289B2B" offset="20%"></stop>
            <stop stop-color="#12BB13" offset="53%"></stop>
            <stop stop-color="#05CF05" offset="81%"></stop>
            <stop stop-color="#00D600" offset="100%"></stop>
        </linearGradient>
        <linearGradient x1="4.41330892e-13%" y1="50%" x2="100%" y2="50%" id="linearGradient-9">
            <stop stop-color="#37843B" offset="0%"></stop>
            <stop stop-color="#289B2B" offset="20%"></stop>
            <stop stop-color="#12BB13" offset="53%"></stop>
            <stop stop-color="#05CF05" offset="81%"></stop>
            <stop stop-color="#00D600" offset="100%"></stop>
        </linearGradient>
        <linearGradient x1="0%" y1="50%" x2="100%" y2="50%" id="linearGradient-10">
            <stop stop-color="#37843B" offset="0%"></stop>
            <stop stop-color="#289B2B" offset="20%"></stop>
            <stop stop-color="#12BB13" offset="53%"></stop>
            <stop stop-color="#05CF05" offset="81%"></stop>
            <stop stop-color="#00D600" offset="100%"></stop>
        </linearGradient>
        <linearGradient x1="-1.47058824%" y1="52%" x2="100.735294%" y2="52%" id="linearGradient-11">
            <stop stop-color="#37843B" offset="0%"></stop>
            <stop stop-color="#289B2B" offset="20%"></stop>
            <stop stop-color="#12BB13" offset="53%"></stop>
            <stop stop-color="#05CF05" offset="81%"></stop>
            <stop stop-color="#00D600" offset="100%"></stop>
        </linearGradient>
        <linearGradient x1="-1.3986014%" y1="46.5%" x2="98.6013986%" y2="46.5%" id="linearGradient-12">
            <stop stop-color="#37843B" offset="0%"></stop>
            <stop stop-color="#289B2B" offset="20%"></stop>
            <stop stop-color="#12BB13" offset="53%"></stop>
            <stop stop-color="#05CF05" offset="81%"></stop>
            <stop stop-color="#00D600" offset="100%"></stop>
        </linearGradient>
        <linearGradient x1="0%" y1="49%" x2="100%" y2="49%" id="linearGradient-13">
            <stop stop-color="#37843B" offset="0%"></stop>
            <stop stop-color="#289B2B" offset="20%"></stop>
            <stop stop-color="#12BB13" offset="53%"></stop>
            <stop stop-color="#05CF05" offset="81%"></stop>
            <stop stop-color="#00D600" offset="100%"></stop>
        </linearGradient>
        <linearGradient x1="0%" y1="50.1710377%" x2="100%" y2="50.1710377%" id="linearGradient-14">
            <stop stop-color="#37843B" offset="0%"></stop>
            <stop stop-color="#289B2B" offset="20%"></stop>
            <stop stop-color="#12BB13" offset="53%"></stop>
            <stop stop-color="#05CF05" offset="81%"></stop>
            <stop stop-color="#00D600" offset="100%"></stop>
        </linearGradient>
        <linearGradient x1="0.724637681%" y1="50%" x2="100%" y2="50%" id="linearGradient-15">
            <stop stop-color="#37843B" offset="0%"></stop>
            <stop stop-color="#289B2B" offset="20%"></stop>
            <stop stop-color="#12BB13" offset="53%"></stop>
            <stop stop-color="#05CF05" offset="81%"></stop>
            <stop stop-color="#00D600" offset="100%"></stop>
        </linearGradient>
        <linearGradient x1="0%" y1="50%" x2="100%" y2="50%" id="linearGradient-16">
            <stop stop-color="#37843B" offset="0%"></stop>
            <stop stop-color="#289B2B" offset="20%"></stop>
            <stop stop-color="#12BB13" offset="53%"></stop>
            <stop stop-color="#05CF05" offset="81%"></stop>
            <stop stop-color="#00D600" offset="100%"></stop>
        </linearGradient>
        <linearGradient x1="0.0837984816%" y1="49.9966302%" x2="99.9038111%" y2="49.9966302%" id="linearGradient-17">
            <stop stop-color="#37843B" offset="0%"></stop>
            <stop stop-color="#289B2B" offset="20%"></stop>
            <stop stop-color="#12BB13" offset="53%"></stop>
            <stop stop-color="#05CF05" offset="81%"></stop>
            <stop stop-color="#00D600" offset="100%"></stop>
        </linearGradient>
        <linearGradient x1="-0.143325143%" y1="49.9613302%" x2="99.9180999%" y2="49.9613302%" id="linearGradient-18">
            <stop stop-color="#37843B" offset="0%"></stop>
            <stop stop-color="#289B2B" offset="20%"></stop>
            <stop stop-color="#12BB13" offset="53%"></stop>
            <stop stop-color="#05CF05" offset="81%"></stop>
            <stop stop-color="#00D600" offset="100%"></stop>
        </linearGradient>
        <linearGradient x1="0.0511116285%" y1="49.9758182%" x2="99.9487896%" y2="49.9758182%" id="linearGradient-19">
            <stop stop-color="#37843B" offset="0%"></stop>
            <stop stop-color="#289B2B" offset="20%"></stop>
            <stop stop-color="#12BB13" offset="53%"></stop>
            <stop stop-color="#05CF05" offset="81%"></stop>
            <stop stop-color="#00D600" offset="100%"></stop>
        </linearGradient>
        <linearGradient x1="0.166666667%" y1="50.017512%" x2="100%" y2="50.017512%" id="linearGradient-20">
            <stop stop-color="#37843B" offset="0%"></stop>
            <stop stop-color="#289B2B" offset="20%"></stop>
            <stop stop-color="#12BB13" offset="53%"></stop>
            <stop stop-color="#05CF05" offset="81%"></stop>
            <stop stop-color="#00D600" offset="100%"></stop>
        </linearGradient>
        <linearGradient x1="-0.112951787%" y1="49.2788462%" x2="100.244711%" y2="49.2788462%" id="linearGradient-21">
            <stop stop-color="#37843B" offset="0%"></stop>
            <stop stop-color="#289B2B" offset="20%"></stop>
            <stop stop-color="#12BB13" offset="53%"></stop>
            <stop stop-color="#05CF05" offset="81%"></stop>
            <stop stop-color="#00D600" offset="100%"></stop>
        </linearGradient>
        <linearGradient x1="-0.00445018308%" y1="49.8573655%" x2="100.084321%" y2="49.8573655%" id="linearGradient-22">
            <stop stop-color="#37843B" offset="0%"></stop>
            <stop stop-color="#289B2B" offset="20%"></stop>
            <stop stop-color="#12BB13" offset="53%"></stop>
            <stop stop-color="#05CF05" offset="81%"></stop>
            <stop stop-color="#00D600" offset="100%"></stop>
        </linearGradient>
        <linearGradient x1="0%" y1="50.0218436%" x2="100%" y2="50.0218436%" id="linearGradient-23">
            <stop stop-color="#37843B" offset="0%"></stop>
            <stop stop-color="#289B2B" offset="20%"></stop>
            <stop stop-color="#12BB13" offset="53%"></stop>
            <stop stop-color="#05CF05" offset="81%"></stop>
            <stop stop-color="#00D600" offset="100%"></stop>
        </linearGradient>
        <linearGradient x1="0.362560081%" y1="50.1639344%" x2="100%" y2="50.1639344%" id="linearGradient-24">
            <stop stop-color="#37843B" offset="0%"></stop>
            <stop stop-color="#289B2B" offset="20%"></stop>
            <stop stop-color="#12BB13" offset="53%"></stop>
            <stop stop-color="#05CF05" offset="81%"></stop>
            <stop stop-color="#00D600" offset="100%"></stop>
        </linearGradient>
        <linearGradient x1="1.77635684e-12%" y1="50%" x2="100%" y2="50%" id="linearGradient-25">
            <stop stop-color="#37843B" offset="0%"></stop>
            <stop stop-color="#289B2B" offset="20%"></stop>
            <stop stop-color="#12BB13" offset="53%"></stop>
            <stop stop-color="#05CF05" offset="81%"></stop>
            <stop stop-color="#00D600" offset="100%"></stop>
        </linearGradient>
        <linearGradient x1="-1.82190445e-12%" y1="50%" x2="100%" y2="50%" id="linearGradient-26">
            <stop stop-color="#37843B" offset="0%"></stop>
            <stop stop-color="#289B2B" offset="20%"></stop>
            <stop stop-color="#12BB13" offset="53%"></stop>
            <stop stop-color="#05CF05" offset="81%"></stop>
            <stop stop-color="#00D600" offset="100%"></stop>
        </linearGradient>
        <linearGradient x1="1.97372982e-12%" y1="50%" x2="100%" y2="50%" id="linearGradient-27">
            <stop stop-color="#37843B" offset="0%"></stop>
            <stop stop-color="#289B2B" offset="20%"></stop>
            <stop stop-color="#12BB13" offset="53%"></stop>
            <stop stop-color="#05CF05" offset="81%"></stop>
            <stop stop-color="#00D600" offset="100%"></stop>
        </linearGradient>
        <linearGradient x1="0%" y1="50%" x2="101.166712%" y2="50%" id="linearGradient-28">
            <stop stop-color="#37843B" offset="0%"></stop>
            <stop stop-color="#289B2B" offset="20%"></stop>
            <stop stop-color="#12BB13" offset="53%"></stop>
            <stop stop-color="#05CF05" offset="81%"></stop>
            <stop stop-color="#00D600" offset="100%"></stop>
        </linearGradient>
        <linearGradient x1="-3.64963504%" y1="50%" x2="97.080292%" y2="50%" id="linearGradient-29">
            <stop stop-color="#37843B" offset="0%"></stop>
            <stop stop-color="#289B2B" offset="20%"></stop>
            <stop stop-color="#12BB13" offset="53%"></stop>
            <stop stop-color="#05CF05" offset="81%"></stop>
            <stop stop-color="#00D600" offset="100%"></stop>
        </linearGradient>
        <linearGradient x1="-2.18360469%" y1="50%" x2="99.7179474%" y2="50%" id="linearGradient-30">
            <stop stop-color="#37843B" offset="0%"></stop>
            <stop stop-color="#289B2B" offset="20%"></stop>
            <stop stop-color="#12BB13" offset="53%"></stop>
            <stop stop-color="#05CF05" offset="81%"></stop>
            <stop stop-color="#00D600" offset="100%"></stop>
        </linearGradient>
        <linearGradient x1="-2.94117647%" y1="51.5%" x2="100%" y2="51.5%" id="linearGradient-31">
            <stop stop-color="#37843B" offset="0%"></stop>
            <stop stop-color="#289B2B" offset="20%"></stop>
            <stop stop-color="#12BB13" offset="53%"></stop>
            <stop stop-color="#05CF05" offset="81%"></stop>
            <stop stop-color="#00D600" offset="100%"></stop>
        </linearGradient>
        <linearGradient x1="0.15576324%" y1="49.6854419%" x2="99.6884735%" y2="49.6854419%" id="linearGradient-32">
            <stop stop-color="#37843B" offset="0%"></stop>
            <stop stop-color="#289B2B" offset="20%"></stop>
            <stop stop-color="#12BB13" offset="53%"></stop>
            <stop stop-color="#05CF05" offset="81%"></stop>
            <stop stop-color="#00D600" offset="100%"></stop>
        </linearGradient>
        <linearGradient x1="0.0481470289%" y1="50.0814185%" x2="100.001379%" y2="50.0814185%" id="linearGradient-33">
            <stop stop-color="#37843B" offset="0%"></stop>
            <stop stop-color="#289B2B" offset="20%"></stop>
            <stop stop-color="#12BB13" offset="53%"></stop>
            <stop stop-color="#05CF05" offset="81%"></stop>
            <stop stop-color="#00D600" offset="100%"></stop>
        </linearGradient>
        <linearGradient x1="0.17699115%" y1="49.7622351%" x2="100%" y2="49.7622351%" id="linearGradient-34">
            <stop stop-color="#37843B" offset="0%"></stop>
            <stop stop-color="#289B2B" offset="20%"></stop>
            <stop stop-color="#12BB13" offset="53%"></stop>
            <stop stop-color="#05CF05" offset="81%"></stop>
            <stop stop-color="#00D600" offset="100%"></stop>
        </linearGradient>
        <linearGradient x1="-0.337174466%" y1="50.0551735%" x2="99.6282002%" y2="50.0551735%" id="linearGradient-35">
            <stop stop-color="#37843B" offset="0%"></stop>
            <stop stop-color="#289B2B" offset="20%"></stop>
            <stop stop-color="#12BB13" offset="53%"></stop>
            <stop stop-color="#05CF05" offset="81%"></stop>
            <stop stop-color="#00D600" offset="100%"></stop>
        </linearGradient>
        <linearGradient x1="-0.721153846%" y1="49.933794%" x2="100%" y2="49.933794%" id="linearGradient-36">
            <stop stop-color="#37843B" offset="0%"></stop>
            <stop stop-color="#289B2B" offset="20%"></stop>
            <stop stop-color="#12BB13" offset="53%"></stop>
            <stop stop-color="#05CF05" offset="81%"></stop>
            <stop stop-color="#00D600" offset="100%"></stop>
        </linearGradient>
        <linearGradient x1="50.0595415%" y1="99.9598342%" x2="50.0595415%" y2="-0.00999396063%" id="linearGradient-37">
            <stop stop-color="#37843B" offset="0%"></stop>
            <stop stop-color="#289B2B" offset="20%"></stop>
            <stop stop-color="#12BB13" offset="53%"></stop>
            <stop stop-color="#05CF05" offset="81%"></stop>
            <stop stop-color="#00D600" offset="100%"></stop>
        </linearGradient>
        <linearGradient x1="49.9940402%" y1="99.8497168%" x2="49.9940402%" y2="-0.1022867%" id="linearGradient-38">
            <stop stop-color="#37843B" offset="0%"></stop>
            <stop stop-color="#289B2B" offset="20%"></stop>
            <stop stop-color="#12BB13" offset="53%"></stop>
            <stop stop-color="#05CF05" offset="81%"></stop>
            <stop stop-color="#00D600" offset="100%"></stop>
        </linearGradient>
        <linearGradient x1="-5.11627907%" y1="48.7961737%" x2="99.5348837%" y2="48.7961737%" id="linearGradient-39">
            <stop stop-color="#37843B" offset="0%"></stop>
            <stop stop-color="#289B2B" offset="20%"></stop>
            <stop stop-color="#12BB13" offset="53%"></stop>
            <stop stop-color="#05CF05" offset="81%"></stop>
            <stop stop-color="#00D600" offset="100%"></stop>
        </linearGradient>
        <linearGradient x1="-1.86915888%" y1="50.5495241%" x2="100%" y2="50.5495241%" id="linearGradient-40">
            <stop stop-color="#37843B" offset="0%"></stop>
            <stop stop-color="#289B2B" offset="20%"></stop>
            <stop stop-color="#12BB13" offset="53%"></stop>
            <stop stop-color="#05CF05" offset="81%"></stop>
            <stop stop-color="#00D600" offset="100%"></stop>
        </linearGradient>
        <linearGradient x1="-4.6728972%" y1="49.516299%" x2="100%" y2="49.516299%" id="linearGradient-41">
            <stop stop-color="#37843B" offset="0%"></stop>
            <stop stop-color="#289B2B" offset="20%"></stop>
            <stop stop-color="#12BB13" offset="53%"></stop>
            <stop stop-color="#05CF05" offset="81%"></stop>
            <stop stop-color="#00D600" offset="100%"></stop>
        </linearGradient>
        <linearGradient x1="0%" y1="50.290772%" x2="100%" y2="50.290772%" id="linearGradient-42">
            <stop stop-color="#37843B" offset="0%"></stop>
            <stop stop-color="#289B2B" offset="20%"></stop>
            <stop stop-color="#12BB13" offset="53%"></stop>
            <stop stop-color="#05CF05" offset="81%"></stop>
            <stop stop-color="#00D600" offset="100%"></stop>
        </linearGradient>
        <linearGradient x1="0%" y1="47.3369552%" x2="100%" y2="47.3369552%" id="linearGradient-43">
            <stop stop-color="#37843B" offset="0%"></stop>
            <stop stop-color="#289B2B" offset="20%"></stop>
            <stop stop-color="#12BB13" offset="53%"></stop>
            <stop stop-color="#05CF05" offset="81%"></stop>
            <stop stop-color="#00D600" offset="100%"></stop>
        </linearGradient>
        <linearGradient x1="-6.5187407e-13%" y1="50.814027%" x2="100%" y2="50.814027%" id="linearGradient-44">
            <stop stop-color="#37843B" offset="0%"></stop>
            <stop stop-color="#289B2B" offset="20%"></stop>
            <stop stop-color="#12BB13" offset="53%"></stop>
            <stop stop-color="#05CF05" offset="81%"></stop>
            <stop stop-color="#00D600" offset="100%"></stop>
        </linearGradient>
        <linearGradient x1="-5.14018692%" y1="50.9311536%" x2="100%" y2="50.9311536%" id="linearGradient-45">
            <stop stop-color="#37843B" offset="0%"></stop>
            <stop stop-color="#289B2B" offset="20%"></stop>
            <stop stop-color="#12BB13" offset="53%"></stop>
            <stop stop-color="#05CF05" offset="81%"></stop>
            <stop stop-color="#00D600" offset="100%"></stop>
        </linearGradient>
        <linearGradient x1="-0.925925926%" y1="50.290772%" x2="100%" y2="50.290772%" id="linearGradient-46">
            <stop stop-color="#37843B" offset="0%"></stop>
            <stop stop-color="#289B2B" offset="20%"></stop>
            <stop stop-color="#12BB13" offset="53%"></stop>
            <stop stop-color="#05CF05" offset="81%"></stop>
            <stop stop-color="#00D600" offset="100%"></stop>
        </linearGradient>
    </defs>
    <g id="UI-Design" stroke="none" stroke-width="1" fill="none" fill-rule="evenodd">
        <g id="Aifin-Web-V5" transform="translate(-923.000000, -1636.000000)" fill-rule="nonzero">
            <g id="Group-23" transform="translate(913.000000, 1626.000000)">
                <g id="icn_fairness-" transform="translate(10.000000, 10.000000)">
                    <path d="M94.2,95.964 C90.042,93.564 83.4,93.468 79.014,95.664 L72.936,92.154 C74.3419044,91.7321028 75.6962974,91.1545236 76.974,90.432 C83.628,86.586 83.664,80.358 77.058,76.518 C70.452,72.678 59.694,72.678 53.058,76.518 C51.9256842,77.1580764 50.8978222,77.9674166 50.01,78.918 L41.484,73.998 C45.798,71.466 45.798,67.398 41.484,64.878 C37.17,62.358 30.048,62.346 25.662,64.878 C21.276,67.41 21.258,71.514 25.614,74.04 C29.268,76.17 34.836,76.482 39.132,75.036 L48.816,80.628 C47.016,83.988 48.432,87.786 53.016,90.444 C57.6,93.102 64.212,93.924 70.044,92.874 L77.07,96.936 C74.106,99.456 74.538,102.936 78.378,105.144 C82.218,107.352 88.23,107.628 92.598,105.9 L92.892,106.068 L94.98,104.868 L94.8,104.766 C98.496,102.204 98.328,98.4 94.2,95.964 Z" id="Path" fill="#B9BEC7" opacity="0.38" style="mix-blend-mode: multiply;"></path>
                    <path d="M78.744,75.732 C78.78,79.896 83.004,82.902 88.212,82.902 C93.42,82.902 97.644,79.902 97.68,75.732 L97.68,74.796 L78.75,74.796 L78.744,75.732 Z" id="Path" fill="#00D600"></path>
                    <g id="Group" transform="translate(78.600000, 69.000000)">
                        <path d="M16.296,2.076 C20.01,4.218 20.028,7.692 16.338,9.834 C12.648,11.976 6.654,11.976 2.94,9.834 C-0.774,7.692 -0.786,4.218 2.898,2.076 C6.582,-0.066 12.6,-0.066 16.296,2.076 Z" id="Path" fill="url(#linearGradient-1)"></path>
                        <path d="M18.264,7.338 C17.7447508,8.30018009 16.9483004,9.08408796 15.978,9.588 C12.492,11.598 6.816,11.598 3.3,9.588 C2.31402966,9.07921263 1.50469797,8.28452001 0.978,7.308 C0.15,5.586 0.912,3.672 3.258,2.322 C6.75,0.312 12.426,0.312 15.936,2.322 C18.318,3.678 19.092,5.61 18.264,7.338 Z" id="Path" fill="#00923D"></path>
                        <path d="M18.264,7.338 C17.7447508,8.30018009 16.9483004,9.08408796 15.978,9.588 C12.492,11.598 6.816,11.598 3.3,9.588 C2.31402966,9.07921263 1.50469797,8.28452001 0.978,7.308 C1.49475736,6.34601926 2.28925947,5.56197112 3.258,5.058 C6.75,3.048 12.426,3.048 15.936,5.058 C16.9246367,5.56519575 17.7363199,6.36014328 18.264,7.338 L18.264,7.338 Z" id="Path" fill="#00D600"></path>
                    </g>
                    <polygon id="Rectangle" fill="#3A4648" transform="translate(85.053492, 61.691455) rotate(-79.140000) translate(-85.053492, -61.691455) " points="67.7254924 61.5474547 102.381492 61.5474547 102.381492 61.8354547 67.7254924 61.8354547"></polygon>
                    <polygon id="Rectangle" fill="#3A4648" transform="translate(91.417481, 62.005521) rotate(-10.750000) translate(-91.417481, -62.005521) " points="91.2734815 45.0105205 91.5614815 45.0105205 91.5614815 79.0005205 91.2734815 79.0005205"></polygon>
                    <polygon id="Rectangle" fill="#3A4648" transform="translate(85.088818, 57.550767) rotate(-76.850000) translate(-85.088818, -57.550767) " points="71.3128176 57.4067669 98.8648176 57.4067669 98.8648176 57.6947669 71.3128176 57.6947669"></polygon>
                    <polygon id="Rectangle" fill="#3A4648" transform="translate(91.370304, 57.538482) rotate(-13.180000) translate(-91.370304, -57.538482) " points="91.2263043 43.8314819 91.5143043 43.8314819 91.5143043 71.2454819 91.2263043 71.2454819"></polygon>
                    <g id="Group" transform="translate(81.000000, 70.200000)">
                        <path d="M0.648,0.642 L0.72,0.546 C0.802609477,0.447826433 0.899729366,0.36284653 1.008,0.294 C1.07617071,0.254784399 1.15178944,0.230259407 1.23,0.222 C1.29099974,0.206249935 1.35500026,0.206249935 1.416,0.222 C1.416,0.222 1.458,0.222 1.47,0.222 L1.242,0.09 L1.242,0.09 C1.242,0.09 1.212,0.09 1.2,0.09 C1.13900026,0.0742499349 1.07499974,0.0742499349 1.014,0.09 C1.014,0.09 1.014,0.09 1.014,0.09 C0.944305615,0.105415328 0.87748266,0.131739522 0.816,0.168 C0.705211488,0.233424653 0.607552113,0.318876606 0.528,0.42 C0.528,0.42 0.528,0.42 0.528,0.42 C0.510569123,0.43961884 0.496389871,0.46190052 0.486,0.486 C0.432282346,0.554914133 0.386023723,0.62933018 0.348,0.708 L0.306,0.774 C0.306,0.774 0.306,0.774 0.306,0.822 C0.252647267,0.939863888 0.218224077,1.06540729 0.204,1.194 L0.432,1.326 C0.449848333,1.19812694 0.484131724,1.0730934 0.534,0.954 L0.588,0.846 C0.601352893,0.776218969 0.621447097,0.707898675 0.648,0.642 L0.648,0.642 Z" id="Path" fill="url(#linearGradient-2)"></path>
                        <path d="M1.008,0.294 C1.35,0.102 1.608,0.24 1.662,0.6 L0.354,1.35 C0.406854984,0.91921743 0.645888799,0.533254572 1.008,0.294 Z" id="Path" fill="url(#linearGradient-3)"></path>
                    </g>
                    <g id="Group" transform="translate(81.000000, 78.000000)">
                        <path d="M1.278,0.81 L1.332,0.924 C1.38259828,1.04284043 1.4169086,1.1679722 1.434,1.296 L1.662,1.164 C1.64706763,1.03361326 1.61268606,0.906199234 1.56,0.786 C1.5592338,0.772010483 1.5592338,0.757989517 1.56,0.744 L1.518,0.678 C1.47997628,0.59933018 1.43371765,0.524914133 1.38,0.456 C1.36825773,0.430752268 1.35419743,0.406648891 1.338,0.384 L1.308,0.384 C1.22705362,0.284209775 1.12965222,0.198983547 1.02,0.132 C0.959174962,0.0944096635 0.892120464,0.0679942551 0.822,0.054 C0.822,0.054 0.822,0.054 0.822,0.054 C0.761441977,0.0350894106 0.696558023,0.0350894106 0.636,0.054 L0.582,0.054 L0.348,0.192 C0.348,0.192 0.39,0.192 0.402,0.192 C0.465060564,0.176492075 0.530939436,0.176492075 0.594,0.192 C0.671592229,0.206348729 0.746484947,0.232662386 0.816,0.27 C0.924442269,0.338616989 1.02159525,0.423625847 1.104,0.522 L1.176,0.618 C1.21403823,0.679771615 1.24810707,0.743901196 1.278,0.81 Z" id="Path" fill="url(#linearGradient-4)"></path>
                        <path d="M0.78,0.24 C0.438,0.042 0.18,0.18 0.126,0.546 L1.434,1.296 C1.38272725,0.864662447 1.14331302,0.478085341 0.78,0.24 Z" id="Path" fill="url(#linearGradient-5)"></path>
                    </g>
                    <g id="Group" transform="translate(93.600000, 70.200000)">
                        <path d="M1.29,0.87 C1.3103816,0.904759131 1.32842166,0.94083924 1.344,0.978 C1.39662502,1.09612529 1.43101665,1.22155361 1.446,1.35 L1.674,1.218 C1.65977592,1.08940729 1.62535273,0.963863888 1.572,0.846 C1.572,0.846 1.572,0.846 1.572,0.798 C1.56365709,0.776021432 1.55146678,0.755704248 1.536,0.738 C1.49508708,0.657748509 1.44688431,0.581427457 1.392,0.51 L1.356,0.444 L1.32,0.444 C1.24110734,0.344487084 1.14572319,0.25925018 1.038,0.192 C0.973961218,0.156633186 0.905298522,0.130379802 0.834,0.114 C0.834,0.114 0.834,0.114 0.834,0.114 C0.772967759,0.0985079324 0.709032241,0.0985079324 0.648,0.114 C0.648,0.114 0.618,0.114 0.606,0.114 L0.606,0.114 L0.378,0.246 L0.378,0.246 C0.378,0.246 0.414,0.246 0.432,0.246 C0.49299974,0.230249935 0.55700026,0.230249935 0.618,0.246 C0.69621056,0.254259407 0.771829287,0.278784399 0.84,0.318 C0.949445695,0.38526427 1.0468028,0.470451737 1.128,0.57 L1.2,0.666 C1.23684455,0.73076989 1.26699999,0.799122227 1.29,0.87 L1.29,0.87 Z" id="Path" fill="url(#linearGradient-6)"></path>
                        <path d="M0.792,0.294 C0.456,0.102 0.192,0.24 0.138,0.6 L1.446,1.35 C1.39314502,0.91921743 1.1541112,0.533254572 0.792,0.294 Z" id="Path" fill="url(#linearGradient-3)"></path>
                    </g>
                    <g id="Group" transform="translate(93.600000, 78.000000)">
                        <path d="M0.66,0.6 L0.732,0.504 C0.81440475,0.405625847 0.911557731,0.320616989 1.02,0.252 C1.08951505,0.214662386 1.16440777,0.188348729 1.242,0.174 C1.30506056,0.158492075 1.37093944,0.158492075 1.434,0.174 C1.434,0.174 1.47,0.174 1.488,0.174 L1.26,0.036 L1.2,0.036 C1.13731295,0.0176665397 1.07068705,0.0176665397 1.008,0.036 C1.008,0.036 1.008,0.036 1.008,0.036 C0.937879536,0.0499942551 0.870825038,0.0764096635 0.81,0.114 C0.70034778,0.180983547 0.602946377,0.266209775 0.522,0.366 C0.522,0.366 0.522,0.366 0.492,0.366 C0.462,0.366 0.492,0.414 0.45,0.438 C0.398403151,0.508370604 0.352268396,0.582587384 0.312,0.66 L0.27,0.726 C0.270766198,0.739989517 0.270766198,0.754010483 0.27,0.768 C0.220077175,0.889154285 0.185800958,1.01617791 0.168,1.146 L0.396,1.278 C0.413091402,1.1499722 0.447401724,1.02484043 0.498,0.906 L0.552,0.792 C0.583835897,0.725745262 0.619910734,0.661612219 0.66,0.6 Z" id="Path" fill="url(#linearGradient-7)"></path>
                        <path d="M1.02,0.24 C1.362,0.042 1.62,0.18 1.674,0.546 L0.366,1.296 C0.41727275,0.864662447 0.65668698,0.478085341 1.02,0.24 Z" id="Path" fill="url(#linearGradient-5)"></path>
                    </g>
                    <g id="Group" transform="translate(33.600000, 12.600000)">
                        <path d="M1.254,1.848 L2.07,1.374 C1.92797552,1.46018444 1.82804089,1.60139641 1.794,1.764 C1.77953381,1.82162127 1.74562495,1.87248456 1.698,1.908 L0.876,2.4 C0.926908509,2.37054196 0.962085233,2.31997542 0.972,2.262 C1.00114311,2.08948502 1.10413501,1.93828413 1.254,1.848 L1.254,1.848 Z" id="Path" fill="url(#linearGradient-8)"></path>
                        <g transform="translate(0.600000, 1.200000)" id="Path">
                            <path d="M0.654,0.648 L1.47,0.174 C1.41393374,0.205774334 1.36493557,0.248647729 1.326,0.3 L0.504,0.774 C0.545048474,0.722369817 0.596059464,0.679520585 0.654,0.648 L0.654,0.648 Z" fill="url(#linearGradient-9)"></path>
                            <path d="M0.504,0.774 L1.326,0.3 C1.27209336,0.365592825 1.2313487,0.440970453 1.206,0.522 L0.39,0.996 C0.413256909,0.915312546 0.451974799,0.839914548 0.504,0.774 L0.504,0.774 Z" fill="url(#linearGradient-10)"></path>
                            <path d="M0.39,0.996 L1.2,0.522 C1.1980303,0.535930719 1.1980303,0.550069281 1.2,0.564 L1.2,0.564 L0.384,1.038 L0.384,1.038 L0.384,0.99 L0.39,0.996 Z" fill="url(#linearGradient-11)"></path>
                            <path d="M0.372,1.056 L1.2,0.6 C1.19096143,0.628380971 1.17671885,0.654831489 1.158,0.678 L0.342,1.158 C0.360695974,1.132605 0.374901583,1.10419378 0.384,1.074 L0.372,1.056 Z" fill="url(#linearGradient-12)"></path>
                            <path d="M0.33,1.14 L1.146,0.66 C1.1331891,0.678899486 1.11689949,0.695189102 1.098,0.708 L0.276,1.2 C0.296441919,1.18945907 0.314751547,1.17521825 0.33,1.158 L0.33,1.14 Z" fill="url(#linearGradient-13)"></path>
                        </g>
                        <path d="M2.772,1.74 C2.832,1.812 2.904,1.872 2.964,1.95 C3.04889912,2.06537182 3.1270305,2.18557394 3.198,2.31 L3.318,2.49 C3.42500971,2.68274831 3.51727337,2.88332147 3.594,3.09 L4.41,2.61 C4.33228129,2.40373452 4.24005052,2.20323284 4.134,2.01 C4.134,1.95 4.056,1.89 4.02,1.83 C3.984,1.77 3.882,1.596 3.798,1.488 L3.798,1.488 C3.738,1.41 3.672,1.35 3.606,1.278 C3.53870372,1.19388859 3.46658245,1.11375385 3.39,1.038 L3.39,1.038 C3.33,0.978 3.264,0.942 3.204,0.888 C3.1240803,0.818814629 3.03991638,0.754689733 2.952,0.696 L2.838,0.6 C2.46883396,0.328838397 1.98119047,0.280534089 1.566,0.474 L0.744,0.948 C1.16170464,0.757378324 1.64956314,0.80547705 2.022,1.074 C2.13525997,1.14664353 2.24350439,1.22682458 2.346,1.314 C2.406,1.362 2.472,1.404 2.532,1.458 C2.6172245,1.54742539 2.69735108,1.64157411 2.772,1.74 Z" id="Path" fill="url(#linearGradient-14)"></path>
                        <polygon id="Path" fill="url(#linearGradient-15)" points="25.176 14.736 25.992 14.262 25.986 17.832 25.164 18.306"></polygon>
                        <polygon id="Path" fill="url(#linearGradient-16)" points="3.594 3.078 4.41 2.604 25.992 14.262 25.176 14.736"></polygon>
                        <path d="M2.022,1.098 C2.75202059,1.56585207 3.30682536,2.26199495 3.6,3.078 L25.2,14.736 L25.2,18.306 L3.696,4.842 L3.186,4.548 C3.0591042,4.480514 2.98560672,4.34300257 3,4.2 C3.05136619,4.07446923 3.07589192,3.9395777 3.072,3.804 C3.02687975,3.04946524 2.62892929,2.36027729 1.998,1.944 C1.494,1.656 1.074,1.806 0.948,2.268 C0.906,2.424 0.768,2.478 0.6,2.382 C0.361354044,2.22908732 0.227298901,1.95635445 0.252,1.674 C0.48,0.87 1.2,0.6 2.022,1.098 Z" id="Path" fill="url(#linearGradient-17)"></path>
                    </g>
                    <path d="M76.8,76.986 C76.8,79.176 75.36,81.366 72.468,83.034 C72.024,83.292 71.544,83.52 71.058,83.742 L70.638,83.916 C70.242,84.084 69.84,84.234 69.438,84.372 L69.078,84.492 C68.556,84.66 68.016,84.804 67.47,84.93 L67.104,85.002 C66.654,85.098 66.204,85.176 65.742,85.242 L65.298,85.308 C64.62,85.398 63.93,85.458 63.24,85.488 L62.886,85.488 C62.172,85.488 61.458,85.488 60.744,85.488 L60.744,85.488 C60.246,85.458 59.748,85.416 59.256,85.356 L58.794,85.29 C58.458,85.248 58.128,85.2 57.798,85.14 C57.612,85.14 57.432,85.068 57.246,85.032 C56.952,84.972 56.646,84.906 56.376,84.834 L55.776,84.684 C55.506,84.606 55.236,84.528 54.966,84.438 L54.444,84.264 C54.114,84.144 53.79,84.012 53.472,83.88 L53.046,83.694 C52.602,83.49 52.164,83.274 51.756,83.04 C51.348,82.806 51.156,82.65 50.838,82.44 L50.574,82.248 C50.4,82.116 50.232,81.984 50.07,81.846 C49.908,81.708 49.728,81.54 49.572,81.39 C49.416,81.24 49.356,81.192 49.266,81.09 C49.176,80.988 48.966,80.742 48.828,80.568 C48.69,80.394 48.672,80.388 48.612,80.298 C48.4470393,80.0676811 48.296742,79.8272055 48.162,79.578 C48.162,79.542 48.12,79.512 48.108,79.482 C47.9687224,79.2114508 47.8503761,78.9306291 47.754,78.642 C47.7,78.468 47.664,78.294 47.628,78.12 C47.628,78.036 47.58,77.946 47.562,77.862 C47.5191871,77.6001488 47.4971185,77.3353257 47.496,77.07 L47.496,80.172 C47.4971185,80.4373257 47.5191871,80.7021488 47.562,80.964 C47.562,81.048 47.604,81.138 47.622,81.222 C47.64,81.306 47.688,81.546 47.736,81.708 L47.736,81.744 C47.8276869,82.0334651 47.9441165,82.3145021 48.084,82.584 L48.144,82.686 C48.2814241,82.9330008 48.4337037,83.1714386 48.6,83.4 C48.666,83.49 48.75,83.58 48.822,83.676 C48.894,83.772 49.098,84.024 49.254,84.192 C49.41,84.36 49.458,84.39 49.56,84.492 C49.662,84.594 49.884,84.798 50.058,84.948 C50.106,84.99 50.142,85.032 50.19,85.068 C50.238,85.104 50.442,85.254 50.568,85.35 L50.832,85.548 C51.12,85.746 51.432,85.944 51.744,86.148 C52.056,86.352 52.59,86.604 53.034,86.808 L53.46,86.988 C53.778,87.12 54.102,87.252 54.438,87.372 L54.678,87.468 L54.96,87.552 L55.764,87.792 C55.956,87.846 56.142,87.9 56.334,87.942 C56.622,88.014 56.934,88.08 57.21,88.14 C57.39,88.176 57.57,88.218 57.756,88.248 C58.092,88.308 58.428,88.356 58.764,88.404 L59.214,88.464 C59.706,88.524 60.204,88.566 60.702,88.596 L60.738,88.596 C61.446,88.632 62.16,88.632 62.874,88.596 L63.234,88.596 C63.926,88.564 64.61,88.504 65.286,88.416 L65.466,88.416 L65.736,88.368 C66.192,88.296 66.642,88.218 67.092,88.122 L67.464,88.05 C68.01,87.924 68.544,87.78 69.072,87.618 L69.426,87.492 C69.84,87.354 70.248,87.204 70.626,87.036 L71.04,86.862 C71.5242626,86.651366 71.9969352,86.4150297 72.456,86.154 C75.348,84.486 76.788,82.296 76.782,80.106 L76.8,76.986 Z" id="Path" fill="url(#linearGradient-18)"></path>
                    <path d="M51.78,71.028 C46.038,74.34 46.008,79.716 51.714,83.028 C57.42,86.34 66.714,86.34 72.438,83.028 C78.162,79.716 78.216,74.334 72.51,71.028 C66.804,67.722 57.522,67.71 51.78,71.028 Z" id="Path" fill="#00923D"></path>
                    <g id="Group" transform="translate(49.800000, 67.800000)">
                        <path d="M24.036,7.092 C24.036,8.838 22.884,10.59 20.574,11.928 C20.205794,12.1350807 19.8273063,12.3233232 19.44,12.492 L19.11,12.636 C18.792,12.768 18.468,12.888 18.138,13.002 L17.85,13.098 C17.436,13.23 17.004,13.344 16.566,13.44 L16.272,13.5 C15.912,13.578 15.552,13.644 15.186,13.698 L14.826,13.746 C14.286,13.818 13.734,13.866 13.182,13.89 L12.894,13.89 C12.324,13.89 11.754,13.89 11.19,13.89 L11.16,13.89 C10.758,13.89 10.368,13.836 9.96,13.788 C9.834,13.788 9.714,13.752 9.588,13.734 C9.324,13.698 9.054,13.662 8.79,13.614 L8.352,13.524 C8.118,13.476 7.884,13.428 7.656,13.368 L7.2,13.248 L6.552,13.056 L6.138,12.912 C5.868,12.816 5.61,12.714 5.352,12.606 L5.016,12.462 C4.662,12.294 4.314,12.126 3.984,11.934 C3.654,11.742 3.48,11.622 3.252,11.46 L3.042,11.304 C2.898,11.202 2.766,11.094 2.634,10.98 C2.502,10.866 2.364,10.74 2.238,10.62 C2.112,10.5 2.064,10.458 1.992,10.38 C1.92,10.302 1.752,10.104 1.644,9.966 C1.536,9.828 1.518,9.816 1.47,9.744 C1.33568719,9.55294363 1.21537312,9.35242019 1.11,9.144 L1.062,9.066 C0.951138985,8.85021869 0.85880709,8.6254106 0.786,8.394 C0.743540811,8.2582227 0.709476447,8.11996145 0.684,7.98 C0.66247612,7.91095373 0.644453163,7.84086445 0.63,7.77 C0.598509953,7.57144412 0.580468883,7.37098778 0.576,7.17 L0.576,9.654 C0.577059447,9.86487177 0.593099831,10.0754018 0.624,10.284 C0.624,10.356 0.66,10.422 0.678,10.494 C0.699441095,10.6238562 0.729507641,10.7521402 0.768,10.878 C0.768,10.878 0.768,10.878 0.768,10.878 C0.842904403,11.1095431 0.937239988,11.3343428 1.05,11.55 L1.098,11.628 C1.20183201,11.8360277 1.32012206,12.0365194 1.452,12.228 L1.626,12.444 C1.734,12.582 1.848,12.726 1.974,12.858 L2.214,13.098 C2.346,13.224 2.472,13.344 2.616,13.464 C2.658,13.5 2.682,13.53 2.724,13.56 C2.766,13.59 2.922,13.71 3.024,13.782 L3.234,13.944 C3.468,14.106 3.708,14.262 3.966,14.412 C4.224,14.562 4.644,14.778 4.998,14.94 L5.34,15.084 C5.59454684,15.1993881 5.85489506,15.3015247 6.12,15.39 L6.312,15.468 L6.534,15.534 C6.75,15.606 6.966,15.672 7.182,15.732 L7.638,15.852 L8.334,16.008 L8.778,16.098 C9.042,16.146 9.306,16.182 9.576,16.218 L9.942,16.272 C10.338,16.314 10.734,16.35 11.142,16.374 L11.142,16.374 C11.742,16.404 12.282,16.404 12.852,16.374 L13.2,16.374 C13.752,16.374 14.304,16.296 14.844,16.23 L14.988,16.23 L15.204,16.188 C15.57,16.134 15.93,16.074 16.29,15.996 L16.584,15.936 C17.022,15.84 17.454,15.72 17.874,15.588 L18.156,15.492 C18.486,15.384 18.81,15.258 19.128,15.132 L19.464,14.988 C19.8506743,14.808748 20.2272385,14.6084479 20.592,14.388 C22.902,13.056 24.06,11.304 24.0540232,9.588 L24.036,7.092 Z" id="Path" fill="url(#linearGradient-19)"></path>
                        <path d="M20.568,11.922 C17.448,13.722 13.038,14.322 9.096,13.656 C7.30386695,13.3963988 5.57496314,12.8085715 3.996,11.922 C-0.57,9.27 -0.546,4.98 4.056,2.322 C7.404,0.384 12.264,-0.138 16.41,0.756 C17.8835707,1.05413033 19.3009553,1.58261232 20.61,2.322 C25.2,4.98 25.2,9.27 20.568,11.922 Z" id="Path" fill="#00D600"></path>
                        <path d="M20.568,11.922 C17.448,13.722 13.038,14.322 9.096,13.656 C7.62242935,13.3578697 6.2050447,12.8293877 4.896,12.09 C0.324,9.438 0.348,5.148 4.944,2.49 C8.064,0.69 12.474,0.09 16.428,0.756 C17.9015707,1.05413033 19.3189553,1.58261232 20.628,2.322 C25.2,4.98 25.2,9.27 20.568,11.922 Z" id="Path" fill="#00D600"></path>
                    </g>
                    <path d="M63.912,27 L63.708,73.908 C63.6746211,74.2094684 63.4856062,74.4713565 63.21,74.598 C62.4564738,74.9836373 61.5635262,74.9836373 60.81,74.598 C60.5301486,74.4702058 60.3401383,74.2023599 60.312,73.896 L60.528,27 C60.5545114,27.3055097 60.7454006,27.5722946 61.026,27.696 C61.7795262,28.0816373 62.6724738,28.0816373 63.426,27.696 C63.7027849,27.5699668 63.8890203,27.3032593 63.912,27 L63.912,27 Z" id="Path" fill="url(#linearGradient-20)"></path>
                    <path d="M63.414,26.316 C63.7107209,26.416938 63.9102565,26.6955805 63.9102565,27.009 C63.9102565,27.3224195 63.7107209,27.601062 63.414,27.702 C62.6604738,28.0876373 61.7675262,28.0876373 61.014,27.702 C60.7172791,27.601062 60.5177435,27.3224195 60.5177435,27.009 C60.5177435,26.6955805 60.7172791,26.416938 61.014,26.316 C61.7675262,25.9303627 62.6604738,25.9303627 63.414,26.316 L63.414,26.316 Z" id="Path" fill="#E4A239"></path>
                    <g id="Group" transform="translate(56.400000, 22.200000)">
                        <path d="M11.4,5.19 C11.382951,5.00326809 11.3488079,4.81849386 11.298,4.638 L11.298,4.638 C11.298,4.602 11.298,4.572 11.256,4.536 C11.2119991,4.38923576 11.1599197,4.24501579 11.1,4.104 L11.016,3.924 C10.95,3.798 10.884,3.672 10.812,3.552 C10.74,3.432 10.746,3.438 10.704,3.384 C10.6127078,3.24562371 10.5124955,3.11334345 10.404,2.988 L10.338,2.91 C10.2115861,2.76429535 10.0708825,2.63163192 9.918,2.514 L9.918,2.484 C9.81874693,2.40253585 9.71231111,2.33023982 9.6,2.268 L6.18,0.294 L6.012,0.204 L5.934,0.204 C5.8313899,0.160219007 5.72493183,0.12607208 5.616,0.102 C5.59006533,0.104606533 5.56393467,0.104606533 5.538,0.102 L5.16,0.102 C5.05598379,0.118824077 4.95617223,0.155489548 4.866,0.21 L0.78,2.61 C0.871712426,2.56003753 0.971050511,2.52557329 1.074,2.508 L1.2,2.508 C1.27773864,2.49896984 1.35626136,2.49896984 1.434,2.508 L1.548,2.508 C1.65673745,2.53278664 1.76313237,2.56691331 1.866,2.61 C1.944,2.646 2.028,2.676 2.112,2.724 L5.526,4.698 C5.65262661,4.76683106 5.77133426,4.84932282 5.88,4.944 C6.03136978,5.06119182 6.17193203,5.19171391 6.3,5.334 L6.372,5.424 C6.47805177,5.54772997 6.57624427,5.67798532 6.666,5.814 L6.774,5.982 C6.846,6.102 6.912,6.222 6.972,6.348 L7.062,6.534 C7.12191967,6.67501579 7.1739991,6.81923576 7.218,6.966 C7.218,7.008 7.218,7.05 7.26,7.092 C7.30792133,7.27315335 7.34201933,7.4576837 7.362,7.644 C7.37394383,7.78374526 7.37394383,7.92425474 7.362,8.064 L6.906,14.064 C6.906,14.136 6.906,14.202 6.87,14.274 C6.83896083,14.4332059 6.78436073,14.5868951 6.708,14.73 L6.672,14.778 C6.5970163,14.9022723 6.4917326,15.0054916 6.366,15.078 L10.434,12.6 C10.5553917,12.521432 10.657851,12.4169235 10.734,12.294 L10.77,12.246 C10.8498751,12.1044716 10.9046821,11.9502 10.932,11.79 C10.932,11.79 10.932,11.79 10.932,11.742 C10.9353319,11.6880514 10.9353319,11.6339486 10.932,11.58 L11.388,5.58 C11.4040019,5.45064615 11.4080085,5.32009231 11.4,5.19 L11.4,5.19 Z" id="Path" fill="url(#linearGradient-21)"></path>
                        <path d="M5.496,4.59 C6.64123596,5.3268885 7.3347437,6.59417789 7.338,7.956 L6.876,13.956 C6.798,15.012 5.994,15.402 5.028,14.844 L2.496,13.38 C1.46250471,12.7074889 0.786151417,11.6059363 0.654,10.38 L0.228,3.876 C0.144,2.586 1.002,2.016 2.082,2.64 L5.496,4.59 Z" id="Path" fill="url(#linearGradient-22)"></path>
                    </g>
                    <g id="Group" transform="translate(64.800000, 30.000000)">
                        <polygon id="Path" fill="url(#linearGradient-23)" points="0.024 0.63 0.84 0.156 22.422 13.416 21.606 13.89"></polygon>
                        <path d="M22.41,14.478 L23.226,14.004 C23.0039742,14.1599114 22.8844167,14.4243175 22.914,14.694 C22.9157452,14.852192 22.9379289,15.009495 22.98,15.162 C22.98,15.258 22.98,15.336 22.938,15.36 L22.122,15.834 C22.17,15.834 22.188,15.738 22.164,15.636 C22.1219289,15.483495 22.0997452,15.326192 22.098,15.168 C22.0697271,14.8985275 22.1889974,14.6347566 22.41,14.478 L22.41,14.478 Z" id="Path" fill="url(#linearGradient-24)"></path>
                        <g transform="translate(21.600000, 13.800000)" id="Path">
                            <path d="M0.81,0.678 L1.626,0.204 C1.56993374,0.235774334 1.52093557,0.278647729 1.482,0.33 L0.666,0.804 C0.70493557,0.752647729 0.753933736,0.709774334 0.81,0.678 L0.81,0.678 Z" fill="url(#linearGradient-25)"></path>
                            <path d="M0.666,0.804 L1.482,0.33 C1.43030415,0.397053792 1.38978199,0.472019794 1.362,0.552 L0.546,1.026 C0.571348701,0.944970453 0.612093365,0.869592825 0.666,0.804 L0.666,0.804 Z" fill="url(#linearGradient-26)"></path>
                            <path d="M0.546,1.026 L1.362,0.552 C1.33583675,0.648067856 1.31974997,0.746599364 1.314,0.846 L0.498,1.32 C0.500789823,1.22029532 0.516933609,1.12141463 0.546,1.026 Z" fill="url(#linearGradient-27)"></path>
                            <path d="M0.498,1.32 L1.314,0.846 L1.314,0.894 C1.31574517,1.05219198 1.33792893,1.20949501 1.38,1.362 C1.38225317,1.39195769 1.38225317,1.42204231 1.38,1.452 L0.564,1.926 C0.566253173,1.89604231 0.566253173,1.86595769 0.564,1.836 C0.52192893,1.68349501 0.49974517,1.52619198 0.498,1.368 L0.498,1.32 L0.498,1.32 Z" fill="url(#linearGradient-28)"></path>
                            <path d="M0.6,1.926 L1.416,1.452 C1.416,1.452 1.416,1.488 1.416,1.5 L0.594,1.98 C0.596810122,1.96210968 0.596810122,1.94389032 0.594,1.926 L0.6,1.926 Z" fill="url(#linearGradient-29)"></path>
                            <path d="M0.564,1.98 L1.386,1.5 C1.38910004,1.51382839 1.38910004,1.52817161 1.386,1.542 L0.57,2.016 C0.57,2.016 0.57,2.016 0.57,1.98 L0.564,1.98 Z" fill="url(#linearGradient-30)"></path>
                            <path d="M0.546,2.016 L1.362,1.542 L1.362,1.542 L0.546,2.016 C0.546,2.016 0.546,2.016 0.546,2.016 Z" fill="url(#linearGradient-31)"></path>
                        </g>
                        <path d="M25.728,16.02 C25.73089,15.9920746 25.73089,15.9639254 25.728,15.936 C25.7338279,15.8962123 25.7338279,15.8557877 25.728,15.816 C25.6752453,15.5804117 25.6029965,15.3496169 25.512,15.126 C25.5006159,15.0890366 25.4865795,15.0529429 25.47,15.018 C25.3713099,14.810832 25.2590664,14.6103972 25.134,14.418 L25.056,14.31 C25.0234687,14.2556823 24.9873904,14.2035692 24.948,14.154 C24.864,14.046 24.774,13.95 24.684,13.854 C24.6451242,13.8071203 24.6030218,13.763013 24.558,13.722 L24.528,13.68 C24.3840335,13.5476509 24.2295222,13.4272526 24.066,13.32 L23.988,13.278 C23.6178854,13.0093227 23.1316332,12.9611562 22.716,13.152 L21.9,13.626 C22.3156332,13.4351562 22.8018854,13.4833227 23.172,13.752 C23.3908283,13.8727007 23.5926029,14.0220139 23.772,14.196 L23.892,14.328 C24.0293595,14.4702139 24.1557228,14.6226521 24.27,14.784 L24.342,14.892 C24.4711017,15.083006 24.5854339,15.2835887 24.684,15.492 C24.6953841,15.5289634 24.7094205,15.5650571 24.726,15.6 C24.8177984,15.8227931 24.8881174,16.0538412 24.936,16.29 C24.9510008,16.3571727 24.9510008,16.4268273 24.936,16.494 L24.936,16.494 C24.9217958,16.5437157 24.8897499,16.5864436 24.846,16.614 L25.662,16.134 C25.6818634,16.1251515 25.6985931,16.110513 25.71,16.092 C25.7286703,16.0710475 25.7429516,16.0465653 25.752,16.02 L25.728,16.02 Z" id="Path" fill="url(#linearGradient-32)"></path>
                        <path d="M23.178,13.728 C24.0760578,14.3150383 24.7007934,15.2380905 24.912,16.29 C24.972,16.578 24.792,16.728 24.564,16.59 C24.3829428,16.4721895 24.2573805,16.286011 24.216,16.074 C24.0867367,15.4480485 23.7131293,14.8995152 23.178,14.55 C22.578,14.208 22.098,14.484 22.098,15.15 C22.0997452,15.308192 22.1219289,15.465495 22.164,15.618 C22.206,15.78 22.122,15.876 21.996,15.804 L21.486,15.51 L0,4.2 L0,0.6 L21.6,13.86 C21.912,13.428 22.5,13.338 23.178,13.728 Z" id="Path" fill="url(#linearGradient-33)"></path>
                    </g>
                    <g id="Group" transform="translate(60.600000, 19.200000)">
                        <g transform="translate(0.000000, 0.600000)" fill="url(#linearGradient-34)" id="Path">
                            <path d="M3.48,0.6 L3.48,4.884 C3.4537792,5.18639365 3.26534137,5.45066623 2.988,5.574 C2.23447378,5.95963726 1.34152622,5.95963726 0.588,5.574 C0.307400605,5.45029458 0.116511443,5.18350973 0.09,4.878 L0.09,0.558 C0.117917983,0.868001342 0.313805831,1.1376352 0.6,1.26 C1.3549198,1.63981133 2.2450802,1.63981133 3,1.26 C3.26329904,1.13772533 3.4447984,0.888163718 3.48,0.6 L3.48,0.6 Z"></path>
                            <path d="M3.48,0.6 L3.48,4.884 C3.4537792,5.18639365 3.26534137,5.45066623 2.988,5.574 C2.23447378,5.95963726 1.34152622,5.95963726 0.588,5.574 C0.307400605,5.45029458 0.116511443,5.18350973 0.09,4.878 L0.09,0.558 C0.117917983,0.868001342 0.313805831,1.1376352 0.6,1.26 C1.3549198,1.63981133 2.2450802,1.63981133 3,1.26 C3.26329904,1.13772533 3.4447984,0.888163718 3.48,0.6 L3.48,0.6 Z"></path>
                        </g>
                        <path d="M3,0.468 C3.2951681,0.572078111 3.49258606,0.851020033 3.49258606,1.164 C3.49258606,1.47697997 3.2951681,1.75592189 3,1.86 C2.2450802,2.23981133 1.3549198,2.23981133 0.6,1.86 C0.304831901,1.75592189 0.107413936,1.47697997 0.107413936,1.164 C0.107413936,0.851020033 0.304831901,0.572078111 0.6,0.468 C1.35423129,0.0852992246 2.24576871,0.0852992246 3,0.468 L3,0.468 Z" id="Path" fill="url(#linearGradient-35)"></path>
                    </g>
                    <g id="Group" transform="translate(59.400000, 15.000000)">
                        <g transform="translate(0.000000, 1.200000)" fill="url(#linearGradient-36)" id="Path">
                            <path d="M5.502,0.294 L5.088,4.992 C5.05038314,5.36271959 4.82329908,5.68744979 4.488,5.85 C3.55696125,6.32445851 2.45503875,6.32445851 1.524,5.85 C1.18283315,5.68813665 0.954061973,5.35641844 0.924,4.98 L0.51,0.282 C0.540776362,0.725497371 0.802987625,1.11995431 1.2,1.32 C2.31761867,1.88956212 3.64038133,1.88956212 4.758,1.32 C5.17581023,1.14084542 5.46155245,0.74679769 5.502,0.294 L5.502,0.294 Z"></path>
                            <path d="M5.502,0.294 L5.088,4.992 C5.05038314,5.36271959 4.82329908,5.68744979 4.488,5.85 C3.55696125,6.32445851 2.45503875,6.32445851 1.524,5.85 C1.18283315,5.68813665 0.954061973,5.35641844 0.924,4.98 L0.51,0.282 C0.540776362,0.725497371 0.802987625,1.11995431 1.2,1.32 C2.31761867,1.88956212 3.64038133,1.88956212 4.758,1.32 C5.17113933,1.13743939 5.45179677,0.74405888 5.49,0.294 L5.502,0.294 Z"></path>
                        </g>
                        <path d="M4.764,0.456 C5.748,1.026 5.754,1.95 4.764,2.52 C3.64638133,3.08956212 2.32361867,3.08956212 1.206,2.52 C0.222,1.95 0.216,1.026 1.206,0.456 C2.3240863,-0.111611318 3.6459137,-0.111611318 4.764,0.456 L4.764,0.456 Z" id="Path" fill="url(#linearGradient-37)"></path>
                    </g>
                    <path d="M26.166,46.044 C26.202,50.208 30.426,53.244 35.634,53.244 C40.842,53.244 45.066,50.244 45.108,46.044 L45.108,45.102 L26.172,45.102 L26.166,46.044 Z" id="Path" fill="#00D600"></path>
                    <g id="Group" transform="translate(25.800000, 39.600000)">
                        <path d="M16.518,1.8 C20.232,3.948 20.25,7.422 16.56,9.564 C12.87,11.706 6.876,11.706 3.162,9.564 C-0.552,7.422 -0.564,3.93 3.12,1.8 C6.804,-0.33 12.804,-0.36 16.518,1.8 Z" id="Path" fill="url(#linearGradient-38)"></path>
                        <path d="M18.486,7.05 C17.9667508,8.01218009 17.1703004,8.79608796 16.2,9.3 C12.714,11.304 7.038,11.304 3.522,9.3 C2.53735053,8.78938892 1.72849727,7.99516608 1.2,7.02 C0.372,5.298 1.134,3.384 3.48,2.034 C6.972,0.024 12.648,0.024 16.158,2.034 C18.54,3.39 19.314,5.322 18.486,7.05 Z" id="Path" fill="#37843B"></path>
                        <path d="M18.486,7.05 C17.9667508,8.01218009 17.1703004,8.79608796 16.2,9.3 C12.714,11.304 7.038,11.304 3.522,9.3 C2.53735053,8.78938892 1.72849727,7.99516608 1.2,7.02 C1.72153541,6.06913306 2.51556595,5.29599806 3.48,4.8 C6.972,2.79 12.648,2.79 16.158,4.8 C17.1423148,5.29923785 17.9535201,6.08326365 18.486,7.05 L18.486,7.05 Z" id="Path" fill="#00D600"></path>
                    </g>
                    <polygon id="Rectangle" fill="#3A4648" transform="translate(32.472976, 31.996296) rotate(-79.140000) translate(-32.472976, -31.996296) " points="15.1449764 31.8522964 49.8009764 31.8522964 49.8009764 32.1402964 15.1449764 32.1402964"></polygon>
                    <polygon id="Rectangle" fill="#3A4648" transform="translate(38.837560, 32.313699) rotate(-10.750000) translate(-38.837560, -32.313699) " points="38.6935597 15.3186992 38.9815597 15.3186992 38.9815597 49.3086992 38.6935597 49.3086992"></polygon>
                    <polygon id="Rectangle" fill="#3A4648" transform="translate(32.501268, 27.852794) rotate(-76.850000) translate(-32.501268, -27.852794) " points="18.7252677 27.7087938 46.2772677 27.7087938 46.2772677 27.9967938 18.7252677 27.9967938"></polygon>
                    <polygon id="Rectangle" fill="#3A4648" transform="translate(38.790094, 27.846870) rotate(-13.180000) translate(-38.790094, -27.846870) " points="38.646094 14.1398698 38.934094 14.1398698 38.934094 41.5538698 38.646094 41.5538698"></polygon>
                    <g id="Group" transform="translate(28.200000, 40.200000)">
                        <path d="M1.698,0.564 L1.698,0.564 L1.464,0.426 L1.41,0.426 C1.34900026,0.410249935 1.28499974,0.410249935 1.224,0.426 L1.224,0.426 C1.15352289,0.438761712 1.08624522,0.465265036 1.026,0.504 C0.915211488,0.569424653 0.817552113,0.654876606 0.738,0.756 C0.738,0.756 0.738,0.756 0.738,0.756 L0.696,0.822 C0.642215789,0.893007378 0.595966723,0.969418879 0.558,1.05 L0.516,1.116 C0.516,1.116 0.516,1.146 0.516,1.158 C0.462604599,1.27794851 0.428193195,1.40547312 0.414,1.536 L0.642,1.668 C0.659800958,1.53817791 0.694077175,1.41115428 0.744,1.29 L0.798,1.182 C0.836872145,1.10380027 0.88307938,1.02946689 0.936,0.96 L1.008,0.864 C1.08894638,0.764209775 1.18634778,0.678983547 1.296,0.612 C1.36412644,0.571602202 1.43957711,0.545092505 1.518,0.534 C1.57899974,0.518249935 1.64300026,0.518249935 1.704,0.534 C1.704,0.534 1.68,0.552 1.698,0.564 Z" id="Path" fill="url(#linearGradient-39)"></path>
                        <path d="M1.23,0.6 C1.572,0.402 1.83,0.54 1.884,0.9 L0.6,1.662 C0.643930532,1.23268559 0.874292131,0.844361753 1.23,0.6 L1.23,0.6 Z" id="Path" fill="url(#linearGradient-40)"></path>
                    </g>
                    <g id="Group" transform="translate(28.200000, 48.000000)">
                        <path d="M1.5,1.122 L1.554,1.23 C1.60463452,1.35091159 1.63893622,1.47802964 1.656,1.608 L1.884,1.476 C1.86980681,1.34547312 1.8353954,1.21794851 1.782,1.098 C1.782,1.098 1.782,1.098 1.782,1.056 L1.74,0.99 C1.70203328,0.909418879 1.65578421,0.833007378 1.602,0.762 L1.56,0.696 C1.48044789,0.594876606 1.38278851,0.509424653 1.272,0.444 C1.21070667,0.405995542 1.14392301,0.377663081 1.074,0.36 L1.074,0.36 C1.01300026,0.344249935 0.94899974,0.344249935 0.888,0.36 L0.834,0.36 L0.606,0.492 L0.6,0.492 C0.660558023,0.473089411 0.725441977,0.473089411 0.786,0.492 C0.864422889,0.503092505 0.939873565,0.529602202 1.008,0.57 C1.11765222,0.636983547 1.21505362,0.722209775 1.296,0.822 L1.368,0.918 C1.41970276,0.980694509 1.4639959,1.04914754 1.5,1.122 Z" id="Path" fill="url(#linearGradient-41)"></path>
                        <path d="M1.002,0.552 C0.66,0.354 0.402,0.492 0.348,0.852 L1.656,1.608 C1.60472725,1.17666245 1.36531302,0.790085341 1.002,0.552 Z" id="Path" fill="url(#linearGradient-42)"></path>
                    </g>
                    <g id="Group" transform="translate(40.800000, 40.200000)">
                        <path d="M1.518,1.2 C1.53648061,1.23484553 1.55251919,1.27093233 1.566,1.308 C1.61868606,1.42819923 1.65306763,1.55561326 1.668,1.686 L1.896,1.554 C1.88466551,1.42295166 1.85012837,1.2949611 1.794,1.176 C1.794,1.176 1.794,1.176 1.794,1.134 C1.78433634,1.11080386 1.77227057,1.08868328 1.758,1.068 C1.7169101,0.991058427 1.67081088,0.916898803 1.62,0.846 C1.60380257,0.823351109 1.58974227,0.799247732 1.578,0.774 L1.542,0.774 C1.46310734,0.674487084 1.36772319,0.58925018 1.26,0.522 C1.19734457,0.483738544 1.12819927,0.457300635 1.056,0.444 L1.056,0.444 C0.994907378,0.42899901 0.931092622,0.42899901 0.87,0.444 L0.78,0.444 L0.552,0.582 C0.552,0.582 0.588,0.582 0.606,0.582 C0.667032241,0.566507932 0.730967759,0.566507932 0.792,0.582 C0.872241998,0.593375883 0.949604514,0.619842007 1.02,0.66 C1.12772319,0.72725018 1.22310734,0.812487084 1.302,0.912 C1.32914774,0.941513567 1.35326834,0.973674372 1.374,1.008 C1.42736947,1.06779116 1.47554394,1.13202378 1.518,1.2 L1.518,1.2 Z" id="Path" fill="url(#linearGradient-43)"></path>
                        <path d="M1.02,0.6 C0.678,0.402 0.42,0.54 0.36,0.9 L1.668,1.656 C1.61655892,1.22626615 1.37983424,0.840492593 1.02,0.6 L1.02,0.6 Z" id="Path" fill="url(#linearGradient-44)"></path>
                    </g>
                    <g id="Group" transform="translate(40.800000, 48.000000)">
                        <path d="M0.882,0.9 C0.904623275,0.865398279 0.930762139,0.83322737 0.96,0.804 C1.03889266,0.704487084 1.13427681,0.61925018 1.242,0.552 C1.31194317,0.51084887 1.38950722,0.484313802 1.47,0.474 C1.53071751,0.456165844 1.59528249,0.456165844 1.656,0.474 L1.71,0.474 L1.482,0.342 L1.428,0.342 C1.36491122,0.326726773 1.29908878,0.326726773 1.236,0.342 L1.236,0.342 C1.16682036,0.361817758 1.10032609,0.390027451 1.038,0.426 C0.92834778,0.492983547 0.830946377,0.578209775 0.75,0.678 L0.75,0.678 C0.737380765,0.700848824 0.723353729,0.722891309 0.708,0.744 C0.656429131,0.816485489 0.610302731,0.892694323 0.57,0.972 L0.528,1.038 C0.528,1.038 0.528,1.038 0.528,1.08 C0.477365481,1.20091159 0.443063785,1.32802964 0.426,1.458 L0.654,1.59 C0.671063785,1.46002964 0.705365481,1.33291159 0.756,1.212 L0.81,1.104 C0.830287125,1.03474603 0.85432256,0.966645627 0.882,0.9 L0.882,0.9 Z" id="Path" fill="url(#linearGradient-45)"></path>
                        <path d="M1.242,0.552 C1.584,0.354 1.842,0.492 1.896,0.852 L0.6,1.608 C0.64845505,1.17877169 0.883242823,0.79257872 1.242,0.552 Z" id="Path" fill="url(#linearGradient-46)"></path>
                    </g>
                </g>
            </g>
        </g>
    </g>
</svg>