<?xml version="1.0" encoding="UTF-8"?>
<svg width="146px" height="48px" viewBox="0 0 146 48" version="1.1" xmlns="http://www.w3.org/2000/svg" xmlns:xlink="http://www.w3.org/1999/xlink">
    <!-- Generator: Sketch 61.2 (89653) - https://sketch.com -->
    <title>Group 19</title>
    <desc>Created with Sketch.</desc>
    <defs>
        <polygon id="path-1" points="0 0.23326068 33.2088531 0.23326068 33.2088531 29.3531386 0 29.3531386"></polygon>
        <polygon id="path-3" points="0.341779279 0.266041848 44.3793746 0.266041848 44.3793746 39.2327812 0.341779279 39.2327812"></polygon>
    </defs>
    <g id="Page-1" stroke="none" stroke-width="1" fill="none" fill-rule="evenodd">
        <g id="Desktop-HD-Copy-2" transform="translate(-58.000000, -24.000000)">
            <g id="Group-19" transform="translate(58.000000, 24.000000)">
                <g id="Group-8" transform="translate(56.979427, 15.362249)" fill="#19355E">
                    <path d="M13.1209936,12.4099281 L10.4215393,5.54582607 L7.75402807,12.4099281 L13.1209936,12.4099281 Z M7.72208507,0.797024847 L13.1843382,0.797024847 L20.9064233,20.530024 L15.6331211,20.530024 L13.8118287,16.0553073 L7.06211019,16.0553073 L5.27384356,20.530024 L-2.8467257e-15,20.530024 L7.72208507,0.797024847 Z" id="Fill-1"></path>
                    <path d="M26.0529821,3.70695292 L31.5471782,3.70695292 L31.5471782,-1.45183011e-13 L26.0529821,-1.45183011e-13 L26.0529821,3.70695292 Z M26.4617442,9.65180907 L24.2647154,9.65180907 L24.7032549,6.00642982 L31.5152352,6.00642982 L31.5152352,20.5301874 L26.4617442,20.5301874 L26.4617442,9.65180907 Z" id="Fill-2"></path>
                    <polygon id="Fill-3" points="38.5147587 0.796752398 53.2052906 0.796752398 53.2052906 4.59633827 43.5687911 4.59633827 43.5687911 8.73321709 52.0434317 8.73321709 52.0434317 12.5932868 43.5687911 12.5932868 43.5687911 20.5302964 38.5147587 20.5302964"></polygon>
                    <polygon id="Fill-4" points="58.9174571 20.5301874 63.9714895 20.5301874 63.9714895 0.796643418 58.9174571 0.796643418"></polygon>
                    <polygon id="Fill-5" points="83.8720331 0.796915867 83.8720331 12.5939952 75.2712448 0.796915867 70.9389077 0.796915867 70.9389077 20.529915 75.9923986 20.529915 75.9923986 8.76226024 84.5942698 20.529915 88.9563843 20.529915 88.9563843 0.796915867"></polygon>
                </g>
                <g id="Group-18" transform="translate(0.000000, 0.202703)">
                    <path d="M33.1836019,39.8159547 C32.4074411,40.6058413 31.0799116,41.4493461 29.8775554,41.4162162 L30.2530752,41.8211857 L30.3509615,41.9288579 L30.3860447,41.9672188 L30.390376,41.9702703 L30.4202616,41.9951177 L30.6576143,42.1934612 C30.8364951,42.2993897 31.1301542,42.4131648 31.4173164,42.4079337 C31.7088098,42.4122929 32.027157,42.3373147 32.345071,42.205231 C32.9752685,41.9249346 33.5898735,41.4589364 34.092299,40.9096774 C34.213141,40.7810811 34.3500087,40.6197908 34.4292706,40.4986051 L34.7913635,39.9868352 C34.9806393,39.6546643 35.1655839,39.3678291 35.3288721,38.9951177 C35.6697419,38.2911072 35.9356809,37.531735 36.1652374,36.7492589 C36.2856462,36.3608544 36.3865644,35.9589364 36.4935464,35.5596338 L36.6468728,34.9545772 L36.685421,34.8020052 L36.7118416,34.6734089 L36.7781098,34.3643418 L37.3060897,31.8918047 C37.4022436,31.4781168 37.4698112,31.0683522 37.5274168,30.6607672 L37.7153933,29.4358326 C37.842299,28.6202267 37.9787335,27.8098518 38.0519317,26.9741935 L38.1996275,25.6115083 C37.6599532,28.6529207 36.9634875,31.6407149 35.9404453,34.5801221 C35.2959546,36.4319093 34.5691701,38.406626 33.1836019,39.8159547" id="Fill-6" fill="#44D62C"></path>
                    <path d="M38.2152633,7.36508282 L37.9272349,6.66455972 L37.6331428,6.13884045 C37.5066701,5.97537053 37.3970894,5.7940279 37.2667186,5.64058413 C37.1224879,5.51068003 37.0051109,5.33979948 36.850052,5.23299913 C36.6910949,5.13404534 36.5667879,4.97972973 36.3887734,4.9195728 C36.2211538,4.84415867 36.0695599,4.73430689 35.8781185,4.69856146 C35.6975052,4.64930253 35.524255,4.56778553 35.3185204,4.56473409 L35.0192308,4.52811683 L34.9447332,4.51809067 L34.9074844,4.51242371 L34.9040194,4.51242371 L34.7758143,4.52114211 C34.5224359,4.54250218 34.2344075,4.54773322 34.0576923,4.60222319 C33.8502252,4.65017437 33.6683125,4.6750218 33.4348579,4.73081953 L32.7171691,4.91434176 C32.4780839,4.97275501 32.2351005,5.05427201 31.9947159,5.12183958 C31.5113479,5.25959024 31.0266805,5.42262424 30.5433125,5.57955536 L29.8212924,5.82628596 L29.4622315,5.9548823 L29.2963444,6.01198779 C29.2868157,6.01460331 29.2751213,6.01068003 29.2612613,6.00501308 L29.0936417,6.086966 C28.383316,6.3646469 27.6669265,6.62794246 26.9739258,6.95967742 C26.622228,7.11181343 26.2761608,7.27659111 25.9344248,7.45880558 C25.5935551,7.63840453 25.2440229,7.8005667 24.90965,7.994551 L23.9022003,8.57040105 L22.9133749,9.18591979 C22.2571899,9.60353095 21.6131324,10.0455536 20.9794699,10.5028335 C19.20149,11.7866173 17.5075364,13.2098954 15.8707554,14.7068439 C19.9954089,11.4583697 24.5198371,8.61748038 29.4301802,7.2478204 C29.4314796,7.24738448 33.8727477,5.94703575 35.389553,6.086966 C36.6824324,6.2059721 37.6114865,6.75566696 38.2698371,7.56299041 C38.2503465,7.49760244 38.2360534,7.42959895 38.2152633,7.36508282" id="Fill-8" fill="#44D62C"></path>
                    <g id="Group-12">
                        <mask id="mask-2" fill="white">
                            <use xlink:href="#path-1"></use>
                        </mask>
                        <g id="Clip-11"></g>
                        <path d="M8.86850312,19.1957716 C12.8502252,15.3919355 15.7279106,12.8391892 17.1823458,11.5776373 C18.1036036,10.7454664 19.0426195,9.93029643 20.0210499,9.16046207 C20.660343,8.66002616 21.3095981,8.17397559 21.9783437,7.71146469 L22.9870929,7.0244551 L24.0213964,6.37624237 C24.3661642,6.15566696 24.7308559,5.96778553 25.0838531,5.76377507 C25.4351178,5.55671316 25.7976438,5.36708806 26.1653673,5.18836094 C26.8899861,4.80562337 27.6475225,4.48958152 28.3998614,4.16133391 L28.232675,4.24372276 C28.3392238,4.1896687 28.4483714,4.13997384 28.5583853,4.09376635 L28.7597886,4.01355711 L29.1279453,3.86665214 L29.8672904,3.57763731 C30.3627859,3.3967306 30.8556826,3.20623365 31.3637387,3.03927637 C31.6184165,2.95514385 31.8639986,2.86185702 32.1264726,2.78513514 L32.9043659,2.55148213 C32.9996535,2.5244551 33.1031705,2.49917175 33.2088531,2.4738884 C30.1955994,1.03927637 26.8276161,0.23326068 23.2733888,0.23326068 C10.4203915,0.23326068 -0.000173250173,10.720619 -0.000173250173,23.6561029 C-0.000173250173,25.6216652 0.243676369,27.5292502 0.697591823,29.3531386 C1.84277547,27.4377071 4.55414068,23.3178291 8.86850312,19.1957716" id="Fill-10" fill="#44D62C" mask="url(#mask-2)"></path>
                    </g>
                    <g id="Group-15" transform="translate(2.165627, 7.846556)">
                        <mask id="mask-4" fill="white">
                            <use xlink:href="#path-3"></use>
                        </mask>
                        <g id="Clip-14"></g>
                        <path d="M38.5109581,0.266041848 C38.7686677,1.55069747 38.8622228,2.82837838 38.8721847,4.08644289 C38.8739172,4.52367044 38.8721847,4.96176983 38.852694,5.40640802 C38.8435984,5.86804708 38.8102477,6.24206626 38.7846933,6.705449 L38.5984494,9.23116827 C38.4633143,10.9190497 38.3784217,12.5838274 38.2030059,14.2908893 L37.95829,16.8292502 L37.6282484,19.3654316 C37.5351265,20.2080645 37.3735707,21.0581081 37.2241424,21.9051003 L36.9971847,23.1749346 C36.9261521,23.6017001 36.846457,24.0214908 36.7416407,24.4273322 L36.1603863,26.8867916 L36.0871881,27.1941151 L36.0438756,27.3732781 L36.0014293,27.5267219 L35.8316441,28.1413688 C35.7090696,28.5554926 35.5973233,28.9656931 35.4595894,29.3802528 C35.1966823,30.2050131 34.8904626,31.0336966 34.481159,31.8327376 C34.297947,32.2268091 34.0289761,32.6448561 33.7872921,33.0302092 L33.4143711,33.5341325 C33.2519491,33.754272 33.1116164,33.9055362 32.9457294,34.0777245 C32.3068694,34.7390148 31.5679574,35.2913252 30.682649,35.6614211 C29.8060031,36.0140802 28.6413288,36.1265475 27.6598666,35.3841761 C26.9452096,34.7638622 26.4310897,34.0576722 25.952053,33.3209677 C25.4673857,32.5903662 25.0806046,31.8231473 24.6938236,31.0637751 C23.938886,29.5406713 23.2891979,27.9931561 22.4792533,26.5777245 C22.0894404,25.8580209 21.6268624,25.2041412 21.1318001,24.5855711 C20.5947245,23.9748474 20.1035603,23.5084133 19.3663808,23.0441587 C18.7457121,22.6662162 17.9851438,22.3493025 17.2406012,22.1631648 C16.4830648,21.971796 15.6956428,21.8867916 14.9069213,21.8885353 C13.3251473,21.8946382 11.7334113,22.2438099 10.2170392,22.781299 C9.81986313,22.9112031 9.47422904,23.0842633 9.10000866,23.2464255 C8.7327183,23.4181779 8.36066355,23.553313 7.99640506,23.7603749 L6.90059771,24.3344813 C6.52897609,24.536748 6.13266632,24.7041412 5.75151594,24.863252 C4.20742377,25.4883609 2.63128032,26.0319529 0.970244283,26.3057105 C0.7627772,26.3370968 0.55227824,26.3641238 0.341779279,26.3811247 C4.18056999,34.00449 12.0344335,39.2329119 21.107545,39.2329119 C33.9601091,39.2329119 44.3793746,28.7455536 44.3793746,15.8096338 C44.3793746,9.84407149 42.1596067,4.40117698 38.5109581,0.266041848" id="Fill-13" fill="#44D62C" mask="url(#mask-4)"></path>
                    </g>
                    <path d="M7.62920132,31.8383173 C8.00385482,31.6731037 8.36811331,31.5131212 8.71981116,31.313034 L9.80782225,30.7193112 C10.1599532,30.5122493 10.5618936,30.3522668 10.9404453,30.1691805 C11.3172644,29.9961203 11.7114085,29.796905 12.0960239,29.6630776 C13.6713011,29.0732781 15.3323371,28.6687446 17.0427495,28.6212293 C18.7557606,28.5763296 20.4878292,28.9080645 22.0574757,29.8056234 C22.1137821,29.8374455 22.1713877,29.8797297 22.2272609,29.9146033 C21.9284044,29.6382302 21.6126559,29.3810375 21.2609581,29.1600262 C18.4434771,27.3971665 14.9308299,27.5963819 11.8612699,28.476068 C10.8066095,28.7777245 9.82081601,29.2018745 8.81336625,29.6299477 C8.06449238,29.9481691 3.23774255,31.4991718 1.28781185,30.8017001 L1.17519924,30.9355275 C1.46842516,31.791238 1.80582987,32.6255885 2.19347713,33.432476 C2.45984927,33.4124237 2.72752079,33.383653 2.99389293,33.3370096 C4.57999827,33.0427637 6.13188669,32.4765039 7.62920132,31.8383173" id="Fill-16" fill="#44D62C"></path>
                </g>
            </g>
        </g>
    </g>
</svg>