<?xml version="1.0" encoding="UTF-8"?>
<svg width="120px" height="120px" viewBox="0 0 120 120" version="1.1" xmlns="http://www.w3.org/2000/svg" xmlns:xlink="http://www.w3.org/1999/xlink">
    <title>icn_customer</title>
    <defs>
        <linearGradient x1="3.93979892e-14%" y1="50.0060421%" x2="100%" y2="50.0060421%" id="linearGradient-1">
            <stop stop-color="#37843B" offset="0%"></stop>
            <stop stop-color="#289B2B" offset="20%"></stop>
            <stop stop-color="#12BB13" offset="53%"></stop>
            <stop stop-color="#05CF05" offset="81%"></stop>
            <stop stop-color="#00D600" offset="100%"></stop>
        </linearGradient>
        <linearGradient x1="0.121723861%" y1="50.0405166%" x2="100.053035%" y2="50.0405166%" id="linearGradient-2">
            <stop stop-color="#37843B" offset="0%"></stop>
            <stop stop-color="#289B2B" offset="20%"></stop>
            <stop stop-color="#12BB13" offset="53%"></stop>
            <stop stop-color="#05CF05" offset="81%"></stop>
            <stop stop-color="#00D600" offset="100%"></stop>
        </linearGradient>
        <linearGradient x1="40.2218161%" y1="49.1546353%" x2="60.4037097%" y2="50.9069093%" id="linearGradient-3">
            <stop stop-color="#37843B" offset="0%"></stop>
            <stop stop-color="#289B2B" offset="20%"></stop>
            <stop stop-color="#12BB13" offset="53%"></stop>
            <stop stop-color="#05CF05" offset="81%"></stop>
            <stop stop-color="#00D600" offset="100%"></stop>
        </linearGradient>
    </defs>
    <g id="UI-Design" stroke="none" stroke-width="1" fill="none" fill-rule="evenodd">
        <g id="Aifin-Web-V5" transform="translate(-725.000000, -1798.000000)" fill-rule="nonzero">
            <g id="Group-25" transform="translate(715.000000, 1788.000000)">
                <g id="icn_customer" transform="translate(10.000000, 10.000000)">
                    <ellipse id="Oval" fill="#B9BEC7" opacity="0.38" style="mix-blend-mode: multiply;" cx="57.708" cy="104.358" rx="25.134" ry="2.664"></ellipse>
                    <path d="M62.958,15.66 C62.958,15.66 65.484,18.06 66.126,19.812 C66.768,21.564 67.728,24.54 67.728,24.54 L66.906,24.648 C66.7006328,25.5771819 66.6439284,26.5330548 66.738,27.48 C66.948,28.578 65.076,28.122 64.068,28.254 C63.06,28.386 60.654,27.816 59.19,24.774 C57.726,21.732 55.062,16.326 62.958,15.66 Z" id="Path" fill="#FDB07B"></path>
                    <path d="M58.674,31.302 C59.124,33.144 63.198,34.59 63.594,33.624 C64.266,31.968 63.828,30.48 63.732,29.232 C63.732,28.902 63.684,28.584 63.66,28.302 C63.66,28.302 63.66,28.302 63.66,28.266 C63.66,27.936 63.618,27.666 63.6,27.432 L63.6,27.432 C63.324,26.994 61.494,24.042 61.122,23.442 L61.086,23.382 L61.086,23.382 L61.086,23.382 L61.086,23.382 L61.086,23.382 L60.72,22.782 L60.606,22.602 L60.546,22.884 L60.546,22.998 L60.42,23.562 L60.21,24.534 L59.868,25.8 L59.868,25.878 L58.674,31.302 Z" id="Path" fill="#FDB07B"></path>
                    <path d="M60.936,21.834 C60.936,21.834 61.326,23.634 60.888,23.688 C60.45,23.742 59.304,22.848 59.262,21.744 C59.22,20.64 60.504,20.598 60.936,21.834 Z" id="Path" fill="#FDB07B"></path>
                    <path d="M60.6,21.678 C60.6,21.678 60.954,22.368 60.684,22.734 C60.414,23.1 59.646,22.404 59.88,21.774 C60.114,21.144 60.45,21.27 60.6,21.678 Z" id="Path" fill="#FD9559"></path>
                    <path d="M66.09,25.944 C65.8310453,25.9829796 65.5664062,25.9540347 65.322,25.86 C65.2106307,25.8084282 65.1122231,25.7325723 65.034,25.638 C64.9597938,25.5466696 64.9065406,25.4401632 64.878,25.326 L64.878,25.326 C64.85757,25.2535245 64.7828126,25.210806 64.71,25.23 C64.6768851,25.2396178 64.6491589,25.2623873 64.6332857,25.293 C64.6174124,25.3236127 64.6147792,25.3593933 64.626,25.392 C64.626,25.392 64.626,25.392 64.626,25.392 C64.6871435,25.5330263 64.7770627,25.6597306 64.89,25.764 C65.0039625,25.8637131 65.1395225,25.935601 65.286,25.974 C65.5515093,26.0396059 65.8301182,26.0292101 66.09,25.944 Z" id="Path" fill="#210075"></path>
                    <path d="M65.34,13.38 C65.466,13.524 67.662,16.542 65.154,18.138 C62.646,19.734 61.632,18.048 61.104,19.236 C60.576,20.424 62.304,22.026 61.878,23.112 L60.996,23.406 C60.996,23.406 60.708,22.89 60.342,22.938 C59.976,22.986 60.396,25.77 59.808,25.848 C59.22,25.926 57.63,23.718 56.874,22.692 C56.118,21.666 54.27,18.12 56.196,16.878 C58.122,15.636 59.196,16.278 59.004,15.342 C58.812,14.406 59.928,15.264 59.928,15.264 C60.1334635,14.7889868 60.0977342,14.244115 59.832,13.8 C59.364,13.068 61.878,12.456 62.766,13.932 C63.654,15.408 64.014,11.82 65.34,13.38 Z" id="Path" fill="#323232"></path>
                    <path d="M67.2,16.512 C67.2146627,16.7083209 67.1708167,16.904584 67.074,17.076 C66.714,17.76 65.796,17.976 65.184,18.138 C65.7327455,18.1593315 66.2805261,18.0758408 66.798,17.892 C67.4018174,17.6826302 67.832923,17.146661 67.908,16.512 L67.2,16.512 Z" id="Path" fill="#323232"></path>
                    <path d="M61.644,28.2 C62.3159854,28.5902712 63.0112928,28.9389268 63.726,29.244 C63.648,28.248 63.6,27.444 63.6,27.444 C63.6,27.444 63.174,27.948 61.068,23.328 C61.068,23.328 61.068,23.328 61.068,23.328 L61.068,23.328 C61.074,23.76 61.2,27.846 61.644,28.2 Z" id="Path" fill="#FD9559"></path>
                    <path d="M84.762,37.02 C84.39,38.016 83.754,39.174 83.076,39.456 C82.6547052,39.6213268 82.282857,39.8919496 81.996,40.242 L81.396,39.888 L80.658,39.456 C80.658,39.456 80.658,39.378 80.712,39.246 C80.766,39.114 80.802,38.928 80.88,38.724 C81.0160811,38.5319378 81.0496882,38.2854853 80.97,38.064 C80.8194378,37.645191 80.8634311,37.1810619 81.09,36.798 C81.33,36.45 81.558,35.598 81.69,35.634 C82.038,35.694 81.522,36.834 81.69,37.068 C81.7184642,37.1270447 81.7693156,37.1722879 81.8312706,37.1936905 C81.8932255,37.2150931 81.96116,37.210885 82.02,37.182 L82.02,37.182 C82.986,36.756 84.156,34.464 84.678,34.782 C84.846,34.89 84.918,36.6 84.762,37.02 Z" id="Path" fill="#FDB07B"></path>
                    <path d="M80.7817363,34.7648768 L86.9877363,34.7648768 C87.1976046,34.7648768 87.3677363,34.9350086 87.3677363,35.1448768 L87.3677363,36.6288768 C87.3677363,36.838745 87.1976046,37.0088768 86.9877363,37.0088768 L80.7817363,37.0088768 C80.5718681,37.0088768 80.4017363,36.838745 80.4017363,36.6288768 L80.4017363,35.1448768 C80.4017363,34.9350086 80.5718681,34.7648768 80.7817363,34.7648768 Z" id="Rectangle" fill="#323232" transform="translate(83.884736, 35.886877) rotate(-54.900000) translate(-83.884736, -35.886877) "></path>
                    <path d="M81.7338435,35.9195457 L88.1138435,35.9195457 C88.2740061,35.9195457 88.4038435,36.0493831 88.4038435,36.2095457 L88.4038435,37.0215457 C88.4038435,37.1817083 88.2740061,37.3115457 88.1138435,37.3115457 L81.7338435,37.3115457 C81.5736809,37.3115457 81.4438435,37.1817083 81.4438435,37.0215457 L81.4438435,36.2095457 C81.4438435,36.0493831 81.5736809,35.9195457 81.7338435,35.9195457 Z" id="Rectangle" fill="#181818" transform="translate(84.923843, 36.615546) rotate(-54.900000) translate(-84.923843, -36.615546) "></path>
                    <path d="M64.062,32.076 C64.062,32.076 70.218,42.816 72.462,44.796 L80.64,38.688 C81.3946229,38.9569082 82.0103489,39.5164626 82.35,40.242 C82.35,40.242 77.4,50.4 72.48,50.808 C67.56,51.216 60.708,38.664 60.708,38.664 L64.062,32.076 Z" id="Path" fill="url(#linearGradient-1)"></path>
                    <path d="M50.124,105.132 L46.566,105.132 C46.0096338,104.766003 45.6531994,104.163828 45.6,103.5 C45.426,102.354 44.142,101.73 43.86,100.788 C43.578,99.846 45,98.532 45,98.532 L45.24,98.226 L45.486,97.908 L47.85,98.466 C47.85,98.466 47.91,99.024 47.946,99.744 C47.946,100.26 47.982,100.854 47.946,101.382 C47.88,102.63 48.3,103.974 49.41,104.22 C50.238,104.4 50.202,104.886 50.124,105.132 Z" id="Path" fill="#181818"></path>
                    <path d="M70.8,105.132 L62.634,105.132 C62.244,104.652 62.388,102.888 62.448,102.312 C62.448,102.198 62.448,102.132 62.448,102.132 C62.448,102.132 65.226,99.906 65.604,101.61 C65.604,101.664 65.634,101.718 65.646,101.766 C66.126,103.356 68.286,104.082 69.528,104.286 C70.0808017,104.295488 70.5775225,104.625854 70.8,105.132 L70.8,105.132 Z" id="Path" fill="#181818"></path>
                    <path d="M69.222,59.712 C69.222,59.712 68.802,64.974 68.304,71.304 C67.632,79.896 66.822,90.456 66.738,92.454 C66.6,95.928 66.048,101.454 66.048,101.454 C66.048,101.454 64.728,102.774 62.088,102.216 C60.5919709,96.8789701 59.5877786,91.4161642 59.088,85.896 C59.088,85.758 59.088,85.62 59.088,85.482 C58.488,76.938 57.486,58.95 57.486,58.95 L69.222,59.712 Z" id="Path" fill="#323232"></path>
                    <path d="M69.222,59.712 C69.222,59.712 68.802,64.974 68.304,71.304 L59.064,85.926 C59.064,85.788 59.064,85.65 59.064,85.512 C58.464,76.968 57.462,58.98 57.462,58.98 L69.222,59.712 Z" id="Path" fill="#181818"></path>
                    <path d="M67.296,60.336 C67.296,60.336 59.694,79.398 54.696,88.356 C49.698,97.314 48.132,99.816 48.132,99.816 C48.132,99.816 45.27,98.67 45.006,97.89 C45.006,97.89 46.92,80.592 50.268,76.38 C52.164,73.98 54.384,66.846 54.468,64.344 C54.552,61.842 55.146,56.898 55.146,56.898 L67.296,60.336 Z" id="Path" fill="#323232"></path>
                    <path d="M69.552,60.15 C69.4651925,60.2251874 69.3548178,60.2676392 69.24,60.27 C68.124,60.27 64.866,60.87 62.112,60.588 C59.8210742,60.3314357 57.5898017,59.690452 55.512,58.692 C55.224,58.56 54.546,58.2 54.564,57.87 C54.582,57.54 54.6,57 54.672,56.34 C54.9595143,52.7673329 55.0136292,49.1797134 54.834,45.6 C54.786,44.76 54.762,43.926 54.756,43.104 C54.756,36.978 55.956,31.59 58.392,29.766 C58.596,29.616 59.88,30.246 61.056,30.822 C62.046653,31.3118211 63.1746636,31.4493834 64.254,31.212 L65.28,32.118 C66.843511,33.468139 67.9641731,35.2578531 68.496,37.254 C69,39.288 69.3,42.966 69.462,46.776 C69.534,48.504 69.594,50.244 69.612,51.894 L69.612,51.954 C69.612,52.116 69.612,52.296 69.612,52.464 C69.684,56.724 69.6,60.09 69.552,60.15 Z" id="Path" fill="url(#linearGradient-2)"></path>
                    <path d="M54.672,56.34 C54.9595143,52.7673329 55.0136292,49.1797134 54.834,45.6 C54.786,44.76 54.762,43.926 54.756,43.104 C55.776,40.638 56.604,38.85 56.604,38.85 L59.166,38.85 C59.166,38.85 61.044,51.702 54.672,56.34 Z" id="Path" fill="#E6E6E6" style="mix-blend-mode: multiply;"></path>
                    <rect id="Rectangle" fill="#323232" transform="translate(48.520260, 67.688563) rotate(-85.320000) translate(-48.520260, -67.688563) " x="43.5162597" y="59.5555627" width="10.008" height="16.266" rx="4.35"></rect>
                    <path d="M55.128,64.524 L55.128,64.524 C54.7692007,63.755118 54.060502,63.2073923 53.226,63.054 L53.226,63.054 L52.968,63.054 L50.778,62.874 L50.862,61.842 C50.8835648,61.6129417 50.8115758,61.3848984 50.6624066,61.2097376 C50.5132374,61.0345768 50.2995692,60.9271893 50.07,60.912 L49.47,60.864 L47.172,60.678 L46.8,60.6 C46.3233713,60.5619354 45.9053507,60.9156452 45.864,61.392 L45.78,62.418 L42,62.112 C40.5569409,61.9945528 39.2918137,63.0689708 39.174,64.512 L38.778,69.312 C38.6604659,70.7562121 39.7340688,72.0230635 41.178,72.144 L52.158,73.044 C52.3574975,73.0640503 52.5585025,73.0640503 52.758,73.044 L52.758,73.044 C53.9824749,72.8772752 54.9232622,71.8764377 55.014,70.644 L55.41,65.844 C55.4368708,65.3866117 55.3394245,64.9304797 55.128,64.524 L55.128,64.524 Z M46.392,61.446 C46.404278,61.305348 46.5062225,61.18884 46.644,61.158 L46.74,61.158 L47.232,61.2 L49.032,61.344 L50.016,61.428 C50.1015665,61.4340708 50.1810512,61.4744535 50.2364105,61.5399808 C50.2917698,61.6055082 50.3183077,61.6906216 50.31,61.776 L50.226,62.802 L46.296,62.484 L46.392,61.446 Z" id="Shape" fill="#38464B"></path>
                    <path d="M49.53,58.938 L49.53,58.758 C49.6476104,58.3637313 49.8279165,57.9909637 50.064,57.654 L48.6,57 L48.09,57.972 C47.268,58.71 47.256,58.722 47.49,60.024 C47.694,61.146 46.95,61.224 47.016,62.016 C47.082,62.808 48.102,62.364 48.102,62.364 C49.674,61.506 49.788,61.116 49.692,60.348 C49.86,60.558 50.034,60.672 50.178,60.57 C50.322,60.468 50.022,60.162 49.866,59.37 C49.7848145,59.2044792 49.6704437,59.057431 49.53,58.938 Z" id="Path" fill="#FDB07B"></path>
                    <path d="M57.462,30.768 C57.462,30.768 49.32,45 48.504,46.992 C47.16,50.286 46.8,57.6 46.8,57.6 C47.1875645,57.855052 47.6219956,58.0304561 48.078,58.116 C48.7152528,58.2127819 49.3616169,58.2349314 50.004,58.182 C50.004,58.182 52.584,49.68 52.926,48.9 C53.172,48.3 57.282,43.23 59.484,40.5 C59.664,36.132 57.462,30.768 57.462,30.768 Z" id="Path" fill="url(#linearGradient-3)"></path>
                </g>
            </g>
        </g>
    </g>
</svg>